{"glyphs":{"0":{"ha":1172,"x_min":0,"x_max":0,"o":"m 125 0 l 1047 0 l 1047 922 l 125 922 z m 579 751 l 586 715 l 671 715 b 856 582 785 715 856 667 b 771 454 856 524 819 482 b 876 313 842 432 876 382 b 692 171 876 221 807 171 l 572 171 l 543 240 l 289 240 l 289 751 z m 401 454 l 401 347 l 579 347 l 593 276 l 685 276 b 750 340 735 276 750 313 b 678 396 750 369 735 396 l 572 396 l 550 454 z m 401 646 l 401 560 l 579 560 l 593 490 l 658 490 b 721 553 707 490 721 524 b 651 610 721 574 707 610 l 572 610 l 557 646 z "},"1":{"ha":1172,"x_min":0,"x_max":0,"o":"m 125 0 l 1047 0 l 1047 922 l 125 922 z m 579 751 l 586 715 l 671 715 b 856 582 785 715 856 667 b 771 454 856 524 819 482 b 876 313 842 432 876 382 b 692 171 876 221 807 171 l 572 171 l 543 240 l 289 240 l 289 751 z m 401 454 l 401 347 l 579 347 l 593 276 l 685 276 b 750 340 735 276 750 313 b 678 396 750 369 735 396 l 572 396 l 550 454 z m 401 646 l 401 560 l 579 560 l 593 490 l 658 490 b 721 553 707 490 721 524 b 651 610 721 574 707 610 l 572 610 l 557 646 z "},"2":{"ha":1172,"x_min":0,"x_max":0,"o":"m 125 0 l 1047 0 l 1047 922 l 125 922 z m 579 751 l 586 715 l 671 715 b 856 582 785 715 856 667 b 771 454 856 524 819 482 b 876 313 842 432 876 382 b 692 171 876 221 807 171 l 572 171 l 543 240 l 289 240 l 289 751 z m 401 454 l 401 347 l 579 347 l 593 276 l 685 276 b 750 340 735 276 750 313 b 678 396 750 369 735 396 l 572 396 l 550 454 z m 401 646 l 401 560 l 579 560 l 593 490 l 658 490 b 721 553 707 490 721 524 b 651 610 721 574 707 610 l 572 610 l 557 646 z "},"3":{"ha":1172,"x_min":0,"x_max":0,"o":"m 125 0 l 1047 0 l 1047 922 l 125 922 z m 579 751 l 586 715 l 671 715 b 856 582 785 715 856 667 b 771 454 856 524 819 482 b 876 313 842 432 876 382 b 692 171 876 221 807 171 l 572 171 l 543 240 l 289 240 l 289 751 z m 401 454 l 401 347 l 579 347 l 593 276 l 685 276 b 750 340 735 276 750 313 b 678 396 750 369 735 396 l 572 396 l 550 454 z m 401 646 l 401 560 l 579 560 l 593 490 l 658 490 b 721 553 707 490 721 524 b 651 610 721 574 707 610 l 572 610 l 557 646 z "},"4":{"ha":1172,"x_min":0,"x_max":0,"o":"m 125 0 l 1047 0 l 1047 922 l 125 922 z m 579 751 l 586 715 l 671 715 b 856 582 785 715 856 667 b 771 454 856 524 819 482 b 876 313 842 432 876 382 b 692 171 876 221 807 171 l 572 171 l 543 240 l 289 240 l 289 751 z m 401 454 l 401 347 l 579 347 l 593 276 l 685 276 b 750 340 735 276 750 313 b 678 396 750 369 735 396 l 572 396 l 550 454 z m 401 646 l 401 560 l 579 560 l 593 490 l 658 490 b 721 553 707 490 721 524 b 651 610 721 574 707 610 l 572 610 l 557 646 z "},"5":{"ha":1172,"x_min":0,"x_max":0,"o":"m 125 0 l 1047 0 l 1047 922 l 125 922 z m 579 751 l 586 715 l 671 715 b 856 582 785 715 856 667 b 771 454 856 524 819 482 b 876 313 842 432 876 382 b 692 171 876 221 807 171 l 572 171 l 543 240 l 289 240 l 289 751 z m 401 454 l 401 347 l 579 347 l 593 276 l 685 276 b 750 340 735 276 750 313 b 678 396 750 369 735 396 l 572 396 l 550 454 z m 401 646 l 401 560 l 579 560 l 593 490 l 658 490 b 721 553 707 490 721 524 b 651 610 721 574 707 610 l 572 610 l 557 646 z "},"6":{"ha":1172,"x_min":0,"x_max":0,"o":"m 125 0 l 1047 0 l 1047 922 l 125 922 z m 579 751 l 586 715 l 671 715 b 856 582 785 715 856 667 b 771 454 856 524 819 482 b 876 313 842 432 876 382 b 692 171 876 221 807 171 l 572 171 l 543 240 l 289 240 l 289 751 z m 401 454 l 401 347 l 579 347 l 593 276 l 685 276 b 750 340 735 276 750 313 b 678 396 750 369 735 396 l 572 396 l 550 454 z m 401 646 l 401 560 l 579 560 l 593 490 l 658 490 b 721 553 707 490 721 524 b 651 610 721 574 707 610 l 572 610 l 557 646 z "},"7":{"ha":1172,"x_min":0,"x_max":0,"o":"m 125 0 l 1047 0 l 1047 922 l 125 922 z m 579 751 l 586 715 l 671 715 b 856 582 785 715 856 667 b 771 454 856 524 819 482 b 876 313 842 432 876 382 b 692 171 876 221 807 171 l 572 171 l 543 240 l 289 240 l 289 751 z m 401 454 l 401 347 l 579 347 l 593 276 l 685 276 b 750 340 735 276 750 313 b 678 396 750 369 735 396 l 572 396 l 550 454 z m 401 646 l 401 560 l 579 560 l 593 490 l 658 490 b 721 553 707 490 721 524 b 651 610 721 574 707 610 l 572 610 l 557 646 z "},"8":{"ha":1172,"x_min":0,"x_max":0,"o":"m 125 0 l 1047 0 l 1047 922 l 125 922 z m 579 751 l 586 715 l 671 715 b 856 582 785 715 856 667 b 771 454 856 524 819 482 b 876 313 842 432 876 382 b 692 171 876 221 807 171 l 572 171 l 543 240 l 289 240 l 289 751 z m 401 454 l 401 347 l 579 347 l 593 276 l 685 276 b 750 340 735 276 750 313 b 678 396 750 369 735 396 l 572 396 l 550 454 z m 401 646 l 401 560 l 579 560 l 593 490 l 658 490 b 721 553 707 490 721 524 b 651 610 721 574 707 610 l 572 610 l 557 646 z "},"9":{"ha":1172,"x_min":0,"x_max":0,"o":"m 125 0 l 1047 0 l 1047 922 l 125 922 z m 579 751 l 586 715 l 671 715 b 856 582 785 715 856 667 b 771 454 856 524 819 482 b 876 313 842 432 876 382 b 692 171 876 221 807 171 l 572 171 l 543 240 l 289 240 l 289 751 z m 401 454 l 401 347 l 579 347 l 593 276 l 685 276 b 750 340 735 276 750 313 b 678 396 750 369 735 396 l 572 396 l 550 454 z m 401 646 l 401 560 l 579 560 l 593 490 l 658 490 b 721 553 707 490 721 524 b 651 610 721 574 707 610 l 572 610 l 557 646 z "},"\u0000":{"ha":0,"x_min":0,"x_max":0,"o":""},"\r":{"ha":347,"x_min":0,"x_max":0,"o":""}," ":{"ha":361,"x_min":0,"x_max":0,"o":""},"a":{"ha":629,"x_min":0,"x_max":0,"o":"m 107 513 b 67 293 33 410 17 326 b 101 283 76 286 89 283 b 247 381 144 283 199 318 b 403 565 303 453 371 565 b 385 400 428 565 414 524 b -1 100 189 311 33 192 b 94 -14 -26 33 14 -14 b 332 92 163 -14 269 33 b 406 -14 322 29 351 -14 b 574 153 465 -14 590 110 b 538 217 564 182 528 167 l 589 460 b 450 708 622 611 567 708 b 107 513 339 708 196 635 z m 235 171 b 279 233 225 188 240 211 b 353 254 311 251 347 265 b 306 185 358 242 335 208 b 254 160 285 168 268 160 b 235 171 246 160 239 164 z "},"l":{"ha":325,"x_min":0,"x_max":0,"o":"m 140 671 b 85 492 124 618 101 557 b 125 -17 8 200 -15 -28 b 285 168 204 -11 303 124 b 221 232 265 218 200 160 b 288 463 238 290 260 356 b 314 929 360 732 393 925 b 78 736 208 935 60 781 b 140 671 99 686 163 743 z "},"o":{"ha":613,"x_min":0,"x_max":0,"o":"m 32 347 b 235 -14 -12 139 110 -14 b 589 347 360 -14 544 139 b 388 708 633 556 513 708 b 32 347 263 708 76 556 z m 242 378 b 411 497 297 469 386 507 b 381 317 435 489 421 385 b 211 197 324 225 238 188 b 242 378 189 206 200 310 z "},"i":{"ha":339,"x_min":0,"x_max":0,"o":"m 272 785 b 410 925 326 796 394 854 b 329 1025 422 985 383 1036 b 196 882 272 1014 207 954 b 272 785 186 825 225 775 z m 107 450 b 54 292 90 397 74 357 b 139 -17 6 122 -1 -24 b 289 125 218 -12 308 90 b 224 174 267 163 207 118 b 279 358 238 218 254 268 b 281 708 335 556 360 704 b 44 515 175 714 26 560 b 107 450 64 465 129 522 z "},"m":{"ha":1021,"x_min":0,"x_max":0,"o":"m 107 450 b 54 292 90 397 74 357 b 140 -14 6 122 0 -21 b 289 125 219 -10 308 90 b 229 144 275 149 244 140 b 422 407 319 311 378 407 b 371 203 465 407 396 267 b 467 -14 313 50 351 -21 b 624 115 543 -10 649 72 b 557 138 607 143 568 125 b 753 407 649 307 707 407 b 701 203 796 407 726 267 b 804 -14 643 50 689 -21 b 968 115 881 -10 994 72 b 901 164 946 153 885 108 b 939 708 938 282 1119 708 b 658 478 860 708 754 617 b 608 708 689 600 692 708 b 300 436 521 708 404 599 b 281 708 340 594 349 704 b 44 515 175 714 26 560 b 107 450 64 465 129 522 z "},"h":{"ha":704,"x_min":0,"x_max":0,"o":"m 585 164 b 608 708 621 282 789 708 b 271 403 504 708 376 572 b 314 929 293 483 425 924 b 78 736 208 935 60 781 b 140 671 99 686 163 743 b 85 492 124 618 101 557 b 125 -17 8 200 -15 -28 b 285 168 204 -11 301 124 b 250 192 278 188 264 190 b 453 436 338 332 413 436 b 385 203 485 436 410 267 b 488 -14 326 50 372 -21 b 651 115 564 -10 678 72 b 585 164 629 153 568 108 z "},"n":{"ha":718,"x_min":0,"x_max":0,"o":"m 599 164 b 622 708 635 282 803 708 b 296 421 521 708 399 582 b 281 708 340 586 351 704 b 44 515 175 714 26 560 b 107 450 64 465 129 522 b 54 292 90 397 74 357 b 140 -14 6 122 0 -21 b 289 125 219 -10 308 90 b 232 143 276 147 247 140 b 436 407 319 300 371 407 b 399 203 479 407 424 267 b 501 -14 340 50 386 -21 b 665 115 601 -8 690 72 b 599 164 642 153 582 108 z "},"u":{"ha":722,"x_min":0,"x_max":0,"o":"m 103 450 b 104 -14 49 289 -51 -14 b 428 264 206 -14 326 107 b 524 -14 382 76 415 -19 b 675 139 603 -10 694 104 b 610 188 653 176 592 132 b 665 374 624 232 640 282 b 664 708 721 569 743 704 b 431 529 558 714 413 574 b 474 506 439 506 460 507 b 288 274 397 367 349 274 b 325 478 244 274 300 414 b 281 708 383 628 368 701 b 44 515 175 715 26 560 b 103 450 64 465 126 522 z "},"b":{"ha":617,"x_min":0,"x_max":0,"o":"m 140 671 b 85 492 124 618 101 557 b 256 -14 -7 132 43 -14 b 608 383 407 -14 561 160 b 488 708 654 596 611 708 b 314 567 440 708 378 654 b 314 929 365 781 382 925 b 78 736 208 935 60 781 b 140 671 99 686 163 743 z m 271 369 b 433 497 326 449 404 510 b 390 317 457 488 432 385 b 233 197 347 244 269 186 b 271 369 199 208 239 324 z "},"c":{"ha":583,"x_min":0,"x_max":0,"o":"m 32 347 b 224 -14 -11 144 83 -14 b 507 174 286 -14 442 89 b 525 244 528 201 535 231 b 496 256 519 253 510 256 b 426 242 476 256 450 249 b 200 197 375 226 228 185 b 242 378 178 207 200 310 b 400 497 297 469 375 507 b 396 403 414 492 396 450 b 488 318 394 347 415 307 b 576 433 532 325 571 383 b 376 708 596 579 500 708 b 32 347 236 708 72 536 z "},"e":{"ha":589,"x_min":0,"x_max":0,"o":"m 32 347 b 224 -14 -10 151 78 -14 b 507 174 286 -14 442 89 b 525 244 528 201 535 231 b 496 256 519 253 510 256 b 426 242 476 256 450 249 b 200 197 375 226 228 185 b 194 253 190 201 189 224 b 583 440 385 271 560 351 b 376 708 619 571 514 708 b 32 347 236 708 72 536 z m 267 379 b 254 397 249 374 244 382 b 403 526 304 471 376 535 b 388 438 421 521 410 465 b 267 379 371 417 325 396 z "},"d":{"ha":660,"x_min":0,"x_max":0,"o":"m 475 671 b 467 649 472 664 469 656 b 376 708 453 688 422 708 b 32 347 236 708 72 536 b 224 -14 -11 144 83 -14 b 363 101 267 -14 315 33 b 460 -17 369 17 401 -21 b 619 168 539 -11 638 124 b 556 232 600 218 535 160 b 622 463 572 290 594 356 b 649 929 694 732 728 925 b 425 763 543 935 407 807 b 475 671 446 713 497 743 z m 382 318 b 200 197 342 239 235 183 b 242 378 178 207 200 310 b 400 497 297 469 375 507 b 382 318 428 486 418 389 z "},"p":{"ha":650,"x_min":0,"x_max":0,"o":"m 107 450 b 51 271 90 397 68 336 b 93 -237 -25 -21 -49 -249 b 251 -53 172 -232 268 -97 b 189 11 232 -3 168 -61 b 194 33 190 18 193 25 b 283 -14 213 3 242 -14 b 635 383 433 -14 588 160 b 514 708 681 596 638 708 b 319 538 463 708 390 642 b 281 708 333 642 326 706 b 44 515 175 714 26 560 b 107 450 64 465 129 522 z m 285 349 b 460 497 332 431 425 511 b 417 317 483 488 458 385 b 260 197 374 244 296 185 b 285 349 239 204 251 290 z "},"q":{"ha":650,"x_min":0,"x_max":0,"o":"m 32 347 b 207 -14 -12 139 63 -14 b 317 68 242 -14 281 18 b 404 -237 285 -119 297 -246 b 563 -53 483 -232 579 -97 b 500 11 543 -3 479 -61 b 565 242 517 69 538 135 b 592 708 636 511 671 704 b 471 646 556 710 513 683 b 376 708 456 688 424 708 b 32 347 236 708 72 536 z m 375 314 b 200 197 331 232 240 181 b 242 378 178 207 200 310 b 400 497 297 469 375 507 b 375 314 433 485 424 406 z "},"f":{"ha":506,"x_min":0,"x_max":0,"o":"m 506 567 b 576 642 529 572 557 608 b 551 692 594 671 581 686 b 382 696 532 696 461 696 b 463 865 408 792 435 863 b 535 776 492 868 514 800 b 647 731 564 742 596 722 b 742 851 706 740 739 788 b 500 999 744 940 621 1017 b 185 690 346 975 247 844 b 100 682 143 688 113 686 b 44 592 67 671 42 608 b 78 560 46 576 54 563 b 138 558 83 558 106 558 b 136 546 138 554 136 550 l 129 522 b 126 510 128 518 128 514 b 89 218 110 401 99 296 b 3 168 82 160 43 218 b 83 -14 -33 124 7 -8 b 290 179 174 -21 256 53 b 339 510 310 246 325 401 b 350 560 340 526 346 543 b 506 567 425 561 490 564 z "},"g":{"ha":631,"x_min":0,"x_max":0,"o":"m 32 347 b 142 47 -7 163 35 47 b 343 186 210 47 279 94 b 281 -26 325 99 300 -19 b 85 4 247 -39 129 -11 b 19 18 64 11 40 18 b -14 7 6 18 -6 15 b -25 -64 -29 -7 -35 -36 b 168 -237 3 -147 104 -237 b 565 242 344 -237 482 -74 b 592 708 636 511 671 704 b 471 646 556 710 513 683 b 376 708 456 686 424 708 b 32 347 236 708 72 536 z m 365 346 b 214 258 317 286 242 247 b 246 399 190 268 200 333 b 400 497 296 471 360 511 b 365 346 436 485 419 413 z "},"j":{"ha":369,"x_min":0,"x_max":0,"o":"m 313 785 b 236 882 265 775 226 825 b 369 1025 247 954 313 1014 b 450 925 424 1036 463 985 b 313 785 435 854 367 796 z m 318 285 b 321 708 388 571 394 706 b 85 515 215 713 67 560 b 147 450 104 465 169 522 b 24 -26 122 369 60 0 b -47 -31 0 -43 -22 -42 b -129 -25 -90 -10 -108 -10 b -144 -99 -147 -39 -154 -71 b -7 -237 -114 -190 -67 -237 b 318 285 142 -237 229 -87 z "},"k":{"ha":639,"x_min":0,"x_max":0,"o":"m 140 671 b 85 492 124 618 101 557 b 125 -17 8 200 -15 -28 b 260 149 204 -11 276 104 b 217 200 244 188 219 176 b 286 317 242 251 265 288 b 478 -15 279 117 351 -15 b 619 143 547 -15 638 86 b 546 183 610 171 582 147 b 424 435 489 242 438 338 b 638 585 519 494 597 518 b 581 708 675 644 646 715 b 294 489 496 700 390 625 b 314 929 374 796 381 925 b 78 736 208 936 60 781 b 140 671 99 686 163 743 z "},"r":{"ha":547,"x_min":0,"x_max":0,"o":"m 360 393 b 590 610 444 472 550 494 b 539 708 613 672 593 708 b 317 511 467 708 390 635 b 281 708 340 628 338 706 b 44 515 175 714 26 560 b 107 450 64 465 129 522 b 54 292 90 397 74 357 b 140 -14 6 122 0 -21 b 289 125 219 -10 308 90 b 221 164 267 160 211 124 b 360 393 236 229 282 321 z "},"s":{"ha":599,"x_min":0,"x_max":0,"o":"m 235 238 b 311 153 319 228 344 194 b 214 132 294 131 242 118 b 172 186 190 144 179 163 b 103 229 165 219 149 239 b -10 125 56 219 -3 176 b 192 -14 -19 44 44 -14 b 544 254 368 -14 529 108 b 268 410 561 408 325 389 b 285 479 249 417 257 447 b 417 563 336 538 389 574 b 410 486 431 557 419 535 b 504 389 397 415 431 379 b 608 510 558 396 600 444 b 403 708 624 626 536 708 b 53 440 250 708 93 581 b 235 238 15 308 65 257 z "},"t":{"ha":500,"x_min":0,"x_max":0,"o":"m 479 578 b 551 653 508 589 532 613 b 526 703 567 683 556 697 b 371 704 506 707 442 707 b 328 860 388 808 378 860 b 75 649 261 860 111 711 b 61 608 67 633 61 617 b 92 563 60 582 74 565 b 132 561 97 561 111 561 b 65 278 106 467 86 372 b 235 -14 25 88 83 -14 b 443 150 301 -14 379 54 b 463 221 464 181 471 208 b 363 218 453 235 417 233 b 269 213 311 203 281 194 b 315 463 256 235 286 356 b 342 565 325 500 333 533 b 479 578 408 568 467 572 z "},"v":{"ha":693,"x_min":0,"x_max":0,"o":"m 467 450 b 333 210 433 296 383 210 b 328 478 272 210 268 290 b 271 708 375 628 360 701 b 46 515 165 715 26 560 b 111 450 68 465 125 522 b 201 -15 50 142 89 -15 b 681 478 386 -15 608 218 b 624 708 722 629 713 701 b 399 515 518 715 379 560 b 467 450 421 465 482 522 z "},"w":{"ha":1029,"x_min":0,"x_max":0,"o":"m 465 450 b 333 210 432 296 383 210 b 328 478 272 210 268 290 b 271 708 375 628 360 701 b 46 515 165 715 25 560 b 111 450 67 465 125 522 b 201 -15 50 142 89 -15 b 465 126 288 -15 382 39 b 550 -15 464 32 488 -15 b 1017 478 735 -15 944 218 b 960 708 1058 629 1049 701 b 735 515 854 715 714 560 b 803 450 756 465 818 522 b 682 210 769 296 732 210 b 665 478 621 210 610 290 b 622 708 711 629 711 701 b 397 515 517 715 376 560 b 465 450 418 465 481 522 z "},"x":{"ha":646,"x_min":0,"x_max":0,"o":"m 674 567 b 531 707 681 658 629 708 b 421 575 447 706 392 629 b 464 510 443 535 461 546 b 397 435 467 485 449 461 b 379 536 390 469 385 504 b 239 708 357 658 317 710 b 79 497 113 706 32 549 b 110 483 89 486 100 483 b 168 454 136 483 160 503 b 181 385 171 432 175 408 b -25 126 54 317 -24 217 b 107 -14 -26 32 19 -15 b 211 118 182 -12 243 57 b 172 176 189 158 175 140 b 219 239 171 196 185 217 b 442 -14 254 132 306 -14 b 599 163 539 -14 625 111 b 578 175 594 172 586 175 b 488 199 558 175 528 164 b 431 290 463 218 444 251 b 674 567 576 357 665 467 z "},"y":{"ha":693,"x_min":0,"x_max":0,"o":"m 467 450 b 338 226 433 296 388 226 b 328 478 276 226 268 290 b 271 708 375 628 360 701 b 46 515 167 715 25 560 b 111 450 67 465 125 522 b 207 15 50 142 94 15 b 311 35 242 15 276 22 b 257 -47 290 -10 271 -42 b 217 -54 244 -53 231 -54 b 79 -17 169 -54 115 -29 b 15 -3 60 -10 36 -3 b -18 -14 1 -3 -10 -6 b -29 -85 -33 -28 -39 -57 b 168 -237 -1 -168 104 -237 b 675 458 329 -237 588 111 b 624 708 699 547 740 703 b 399 515 518 714 378 560 b 467 450 419 465 482 522 z "},"z":{"ha":583,"x_min":0,"x_max":0,"o":"m 310 560 b 388 574 333 568 361 572 b 0 136 279 431 76 301 b 54 -10 -37 56 -21 -4 b 106 -6 69 -11 88 -10 b 360 0 169 -14 282 -22 b 536 175 447 25 508 86 b 475 300 564 271 532 315 b 292 156 411 283 369 203 b 207 128 265 140 240 132 b 219 154 206 133 211 142 b 536 496 315 293 432 371 b 549 708 618 593 625 700 b 471 700 524 711 496 708 b 110 638 306 714 174 724 b 90 382 47 553 11 371 b 310 560 174 393 242 538 z "},"A":{"ha":753,"x_min":0,"x_max":0,"o":"m 293 649 b 140 439 260 601 214 551 b 76 336 117 403 94 368 b 38 329 60 333 46 332 b -15 242 4 317 -18 263 b 13 211 -12 228 -8 211 b 47 -1 -36 90 -25 19 b 254 118 118 -22 254 68 b 222 203 256 174 204 160 b 233 229 225 210 229 219 b 372 232 279 231 328 232 b 425 272 389 232 408 247 b 568 -14 426 71 472 -14 b 708 176 633 -14 742 133 b 635 244 676 217 631 176 b 651 472 639 300 646 361 b 569 885 665 743 635 885 b 289 738 471 885 290 789 b 293 649 288 679 340 714 z m 304 354 b 339 410 315 372 328 392 l 410 519 b 444 575 422 539 433 557 b 426 350 435 499 431 425 b 414 353 422 351 418 353 b 304 354 397 356 354 356 z "},"B":{"ha":753,"x_min":0,"x_max":0,"o":"m 144 629 b 83 433 128 576 107 519 b 139 -17 0 125 22 -26 b 239 32 171 -14 208 6 b 372 -14 276 6 322 -12 b 682 189 529 -21 654 61 b 539 367 700 275 653 333 b 760 631 650 410 733 506 b 536 889 792 776 693 889 b 364 839 478 889 415 869 b 319 888 357 871 343 886 b 82 694 214 894 64 739 b 144 629 103 644 167 701 z m 336 574 b 526 715 378 688 476 763 b 503 553 557 688 547 617 b 369 465 457 486 404 460 b 336 574 324 472 313 511 z m 278 322 b 385 332 292 339 339 340 b 472 240 443 321 497 293 b 317 179 450 193 386 168 b 278 322 236 192 260 300 z "},"C":{"ha":681,"x_min":0,"x_max":0,"o":"m 38 438 b 265 -14 -17 183 104 -14 b 592 182 336 -14 526 97 b 613 261 613 210 622 247 b 574 275 607 271 592 275 b 515 267 556 275 535 271 b 224 217 464 256 251 204 b 267 474 193 231 215 375 b 476 692 319 579 428 693 b 479 549 510 690 479 596 b 594 426 478 451 522 415 b 704 614 665 438 704 501 b 453 889 706 763 586 889 b 38 438 289 889 88 669 z "},"D":{"ha":800,"x_min":0,"x_max":0,"o":"m 144 629 b 82 428 128 576 107 519 b 139 -17 18 186 -1 -28 b 232 25 169 -14 203 3 b 326 -14 260 1 292 -14 b 778 431 507 -14 729 206 b 525 889 832 683 718 889 b 363 839 468 889 411 869 b 319 888 356 871 342 886 b 82 694 214 894 64 739 b 144 629 103 644 167 701 z m 251 260 b 303 435 265 306 282 361 b 351 649 325 518 340 626 b 544 699 372 689 511 718 b 526 386 597 668 578 489 b 281 183 458 250 335 165 b 251 260 249 194 238 218 z "},"E":{"ha":638,"x_min":0,"x_max":0,"o":"m 144 629 b 107 508 133 594 122 558 b 86 504 99 507 90 506 b 29 414 53 493 28 431 b 72 382 33 390 49 382 b 140 -11 -3 92 18 -25 b 474 8 226 -10 443 -11 b 565 132 511 31 536 65 b 540 182 579 163 569 176 b 294 156 507 189 401 164 b 242 226 246 153 229 183 b 286 381 253 268 267 311 b 482 389 378 382 464 385 b 553 464 504 394 533 431 b 528 514 571 493 557 508 b 322 518 504 518 417 519 b 361 714 342 592 354 658 b 604 722 450 714 579 717 b 681 825 626 728 661 792 b 656 875 699 854 685 869 b 550 881 639 879 599 881 b 350 872 483 881 401 876 b 319 888 342 882 332 888 b 82 694 214 893 64 739 b 144 629 103 644 167 701 z "},"F":{"ha":579,"x_min":0,"x_max":0,"o":"m 482 389 b 553 464 504 394 533 431 b 528 514 569 493 557 508 b 322 518 504 518 414 519 b 361 714 342 592 354 658 b 604 722 450 714 579 717 b 681 825 626 728 661 792 b 656 875 699 854 685 869 b 349 872 617 883 438 881 b 319 888 342 882 332 888 b 82 694 214 893 64 739 b 144 629 103 644 167 701 b 106 508 133 593 119 558 b 86 504 97 507 90 506 b 29 414 51 493 26 431 b 69 382 32 392 46 382 b 139 -17 15 160 7 -26 b 303 160 218 -11 321 117 b 242 226 282 207 222 157 b 286 381 253 269 268 314 b 482 389 376 382 464 385 z "},"G":{"ha":726,"x_min":0,"x_max":0,"o":"m 38 438 b 265 -14 -14 199 93 -14 b 429 69 306 -14 368 21 b 550 -17 444 11 494 -19 b 649 57 629 -12 661 31 b 621 108 638 79 607 71 b 685 313 644 176 669 244 b 639 458 706 411 692 456 b 401 343 533 464 388 390 b 464 278 415 292 481 333 b 454 249 461 268 458 258 b 226 219 368 226 247 210 b 265 474 196 233 215 375 b 476 692 311 565 435 693 b 490 599 504 690 490 646 b 597 519 492 539 532 510 b 714 660 672 531 717 585 b 453 889 708 782 588 889 b 38 438 289 889 86 669 z "},"H":{"ha":799,"x_min":0,"x_max":0,"o":"m 144 629 b 100 492 132 590 118 549 b 85 489 93 490 88 490 b 25 385 50 478 22 401 b 58 353 28 369 35 356 b 64 353 60 353 61 353 b 139 -17 17 144 14 -25 b 303 160 218 -11 321 117 b 240 221 282 207 219 151 b 279 351 251 258 264 299 b 476 360 371 353 458 356 b 513 389 486 363 500 374 b 578 -17 456 164 444 -26 b 742 160 657 -11 760 117 b 679 221 721 207 660 151 b 742 439 696 276 715 339 b 758 888 811 699 836 883 b 521 694 653 893 503 739 b 583 629 542 644 606 701 b 542 494 571 590 558 550 b 525 499 538 496 531 497 b 319 503 503 503 413 504 b 319 888 375 728 390 883 b 82 694 214 893 64 739 b 144 629 103 644 167 701 z "},"I":{"ha":360,"x_min":0,"x_max":0,"o":"m 144 629 b 83 428 128 576 108 519 b 139 -17 19 186 -1 -26 b 303 160 218 -11 322 117 b 240 221 283 207 219 151 b 303 439 256 276 276 339 b 319 888 372 699 397 883 b 82 694 214 893 64 739 b 144 629 103 644 167 701 z "},"J":{"ha":472,"x_min":0,"x_max":0,"o":"m 457 481 b 442 889 518 764 513 886 b 154 718 314 894 146 781 b 268 636 165 642 276 701 b 165 197 254 531 188 218 b 68 193 144 178 92 182 b -3 199 39 207 15 208 b -18 125 -22 188 -28 153 b 151 -14 10 43 63 -14 b 457 481 303 -14 378 107 z "},"K":{"ha":751,"x_min":0,"x_max":0,"o":"m 144 629 b 82 428 128 576 107 519 b 139 -17 18 186 -1 -26 b 303 160 218 -11 321 117 b 240 221 282 207 221 151 b 264 307 249 254 256 281 b 335 347 288 321 313 333 b 536 -15 347 156 425 -15 b 733 143 622 -15 753 83 b 639 183 722 176 675 147 b 499 456 614 208 535 347 b 760 771 640 561 722 663 b 710 889 782 838 758 885 b 549 829 658 893 568 865 b 538 753 531 797 551 786 b 314 486 499 657 422 567 b 319 888 374 715 393 883 b 82 694 214 893 64 739 b 144 629 103 644 167 701 z "},"L":{"ha":610,"x_min":0,"x_max":0,"o":"m 144 629 b 81 419 128 576 107 519 b 140 -11 -4 106 13 -17 b 474 8 226 -10 443 -11 b 565 132 511 31 536 65 b 540 182 579 163 569 176 b 288 154 507 189 397 165 b 242 226 242 150 229 178 b 307 454 257 282 276 339 b 319 888 372 699 397 883 b 82 694 214 893 64 739 b 144 629 103 644 167 701 z "},"M":{"ha":957,"x_min":0,"x_max":0,"o":"m 143 633 b 43 393 125 582 85 525 b 101 -18 -19 193 -37 -21 b 272 151 179 -17 289 107 b 193 218 256 200 169 149 b 281 478 211 268 232 328 b 360 282 301 389 325 306 b 500 292 390 263 464 267 b 704 513 550 328 631 418 b 679 428 697 488 688 460 b 736 -17 615 186 596 -26 b 900 160 815 -11 918 117 b 838 221 879 207 818 151 b 899 431 854 276 874 339 b 893 888 971 703 986 883 b 696 757 828 890 758 839 b 471 489 635 678 544 572 b 361 857 446 614 406 781 b 317 886 349 878 342 886 b 85 703 214 888 69 747 b 143 633 101 651 169 706 z "},"N":{"ha":840,"x_min":0,"x_max":0,"o":"m 144 629 b 82 428 128 576 108 519 b 139 -17 18 186 -1 -26 b 303 160 218 -11 322 117 b 240 221 283 207 219 151 b 308 488 265 307 289 401 b 518 19 357 307 435 119 b 599 -17 535 -6 561 -19 b 763 160 678 -11 782 117 b 700 221 743 207 679 151 b 763 439 715 276 736 339 b 779 888 832 699 857 883 b 542 694 674 893 524 739 b 604 629 563 644 626 701 b 560 436 589 581 572 515 b 354 867 503 628 418 786 b 319 888 344 879 335 886 b 82 694 214 893 64 739 b 144 629 103 644 167 701 z "},"O":{"ha":768,"x_min":0,"x_max":0,"o":"m 35 431 b 297 -14 -19 174 144 -14 b 749 431 451 -14 694 174 b 489 889 803 688 643 889 b 35 431 336 889 89 688 z m 271 489 b 546 667 358 631 506 682 b 510 381 582 654 574 485 b 236 201 425 239 276 188 b 271 489 200 215 207 383 z "},"P":{"ha":701,"x_min":0,"x_max":0,"o":"m 144 629 b 82 428 128 576 107 519 b 139 -17 18 186 -1 -28 b 297 133 211 -11 310 82 b 240 221 286 176 219 151 b 256 272 244 238 250 254 b 368 208 283 233 324 208 b 728 583 526 208 683 374 b 525 889 767 765 668 889 b 363 839 468 889 411 869 b 319 888 356 871 342 886 b 82 694 214 894 64 739 b 144 629 103 644 167 701 z m 353 631 b 538 719 389 690 499 754 b 496 511 565 694 540 585 b 336 410 457 447 378 397 b 353 631 269 429 311 564 z "},"Q":{"ha":768,"x_min":0,"x_max":0,"o":"m 35 431 b 297 -14 -19 174 144 -14 b 340 -10 311 -14 325 -12 b 508 -158 379 -96 439 -158 b 650 0 578 -158 668 -57 b 556 40 640 28 599 13 b 517 76 542 50 529 63 b 749 431 621 156 717 281 b 489 889 803 688 643 889 b 35 431 336 889 89 688 z m 271 489 b 546 667 358 631 506 682 b 510 381 582 654 574 485 b 446 299 490 349 468 322 b 449 347 444 315 446 332 b 426 421 451 372 451 415 b 307 338 393 429 322 385 b 290 206 294 297 289 251 b 236 201 267 199 247 197 b 271 489 200 215 207 383 z "},"R":{"ha":726,"x_min":0,"x_max":0,"o":"m 144 629 b 83 433 128 576 107 519 b 139 -17 0 125 22 -26 b 283 128 211 -11 296 76 b 240 221 272 171 219 151 b 269 318 249 250 258 282 b 328 272 286 299 306 283 b 522 -15 332 100 410 -15 b 664 143 592 -15 682 86 b 590 183 654 171 626 147 b 517 285 565 208 535 244 b 744 596 624 335 714 449 b 539 889 782 771 682 889 b 363 838 481 889 415 868 b 319 888 356 869 342 886 b 82 694 214 894 64 739 b 144 629 103 644 167 701 z m 356 638 b 532 715 392 693 483 749 b 496 511 564 694 549 590 b 349 438 456 449 390 425 b 356 638 282 457 317 579 z "},"S":{"ha":696,"x_min":0,"x_max":0,"o":"m 289 307 b 379 178 388 293 429 243 b 281 140 354 146 317 136 b 204 200 244 146 213 168 b 115 264 194 239 165 269 b 3 133 50 257 14 206 b 231 -14 -10 44 79 -14 b 631 282 419 -14 613 124 b 322 485 651 457 385 464 b 336 599 303 492 296 528 b 493 738 389 694 460 738 b 515 621 522 738 517 654 b 615 503 513 542 551 493 b 719 665 672 511 717 564 b 490 890 722 803 626 890 b 92 558 328 890 140 735 b 289 307 49 397 121 331 z "},"T":{"ha":714,"x_min":0,"x_max":0,"o":"m 307 658 b 222 426 271 597 242 501 b 279 -17 133 94 163 -25 b 443 160 358 -11 461 117 b 381 221 422 207 361 151 b 444 443 397 276 417 339 b 517 704 478 565 503 649 b 742 719 626 707 722 713 b 844 825 781 735 821 771 b 819 875 858 856 849 868 b 122 851 765 889 210 879 b 60 733 89 840 57 750 b 93 701 61 718 71 704 b 335 700 107 700 213 699 b 307 658 325 686 315 672 z "},"U":{"ha":790,"x_min":0,"x_max":0,"o":"m 506 294 b 315 201 468 232 361 185 b 290 375 274 217 264 281 b 319 888 389 717 381 885 b 82 694 214 892 64 739 b 144 629 103 644 167 701 b 61 325 128 576 81 417 b 307 -14 22 146 139 -14 b 764 444 506 -14 694 176 b 761 888 833 713 832 883 b 536 694 656 893 518 739 b 599 629 557 644 621 701 b 506 294 582 576 531 386 z "},"V":{"ha":785,"x_min":0,"x_max":0,"o":"m 592 633 b 376 231 547 399 456 231 b 372 660 299 231 296 388 b 314 888 410 793 403 879 b 83 694 208 899 63 739 b 147 629 106 644 167 701 b 236 -15 51 272 88 -15 b 813 660 471 -15 753 318 b 742 888 839 810 817 879 b 524 694 636 899 504 739 b 592 633 547 644 603 690 z "},"W":{"ha":1158,"x_min":0,"x_max":0,"o":"m 558 633 b 376 231 518 418 433 231 b 372 660 299 231 296 389 b 314 888 410 793 403 879 b 83 694 208 899 63 739 b 147 629 106 644 167 701 b 236 -15 51 272 88 -15 b 546 185 338 -15 450 64 b 683 -15 554 57 601 -15 b 1186 660 872 -15 1128 329 b 1115 888 1213 810 1190 879 b 897 694 1010 899 878 739 b 965 633 921 644 976 690 b 776 231 921 399 856 231 b 749 604 710 231 699 358 b 708 888 765 683 819 875 b 490 694 603 899 471 739 b 558 633 514 644 569 690 z "},"X":{"ha":747,"x_min":0,"x_max":0,"o":"m 803 747 b 656 888 810 839 754 889 b 540 756 572 886 511 810 b 583 690 561 715 579 726 b 456 526 586 664 531 582 b 410 717 433 603 418 672 b 267 889 388 839 343 890 b 99 678 140 886 51 729 b 186 635 135 638 176 703 b 236 439 193 589 211 517 b -18 126 97 374 -15 242 b 132 -14 -19 38 38 -15 b 236 118 207 -12 268 57 b 197 176 214 158 200 140 b 286 294 194 201 226 253 b 401 49 326 186 371 86 b 542 -14 429 17 482 -14 b 701 163 639 -14 728 111 b 594 199 686 193 656 150 b 504 372 567 222 533 290 b 803 747 643 444 790 603 z "},"Y":{"ha":757,"x_min":0,"x_max":0,"o":"m 565 640 b 414 450 547 528 485 450 b 375 674 340 450 325 526 b 314 888 418 799 403 879 b 83 694 207 897 63 739 b 149 632 106 647 167 700 b 246 253 92 422 139 293 b 335 -17 172 81 225 -25 b 499 160 407 -11 521 111 b 436 221 479 207 415 151 b 439 229 436 224 439 226 l 443 246 b 446 254 443 249 444 251 b 786 668 619 308 751 463 b 714 888 811 813 789 881 b 496 694 607 897 474 736 b 565 640 519 650 574 692 z "},"Z":{"ha":719,"x_min":0,"x_max":0,"o":"m 415 739 b 519 753 442 747 481 751 b 6 136 406 600 82 303 b 88 -10 -32 56 13 -4 b 142 -6 103 -11 124 -10 b 458 0 219 -12 379 -18 b 660 182 551 21 632 93 b 590 358 690 281 654 367 b 369 156 507 347 447 203 b 246 126 342 139 297 131 b 261 154 247 132 250 140 b 710 675 357 293 606 550 b 696 888 792 772 772 879 b 614 878 668 890 640 886 b 181 817 363 892 243 874 b 150 506 83 726 57 500 b 415 739 232 510 349 717 z "},".":{"ha":303,"x_min":0,"x_max":0,"o":"m 75 -12 b 201 114 129 -1 188 43 b 126 200 215 174 179 211 b 3 71 69 189 13 136 b 75 -12 -6 14 28 -22 z "},",":{"ha":363,"x_min":0,"x_max":0,"o":"m 86 -12 b 61 -46 78 -26 69 -37 b -28 -114 49 -57 -7 -87 b -29 -200 -53 -144 -53 -190 b 146 -137 11 -215 94 -181 b 257 118 210 -82 250 18 b 157 200 260 172 213 211 b 29 71 94 188 38 131 b 86 -12 22 28 50 -4 z "},"-":{"ha":493,"x_min":0,"x_max":0,"o":"m 368 281 b 422 310 386 281 413 293 b 453 408 442 342 449 379 b 426 439 456 426 444 439 l 131 439 b 86 410 113 439 97 425 b 58 338 74 394 64 367 b 92 281 51 308 63 281 z "},"+":{"ha":565,"x_min":0,"x_max":0,"o":"m 442 281 b 496 310 460 281 486 293 b 524 408 515 342 519 379 b 497 439 526 426 515 439 l 383 439 l 407 550 b 383 583 411 568 401 581 b 283 578 350 589 310 588 b 244 529 265 571 249 547 l 225 439 l 129 439 b 85 410 111 439 96 425 b 58 338 72 394 64 367 b 92 281 51 308 63 281 l 192 281 l 171 181 b 218 135 165 151 189 139 b 290 140 242 131 274 132 b 328 179 308 149 324 161 l 350 281 z "},"*":{"ha":576,"x_min":0,"x_max":0,"o":"m 340 824 b 382 774 336 790 361 774 b 446 825 404 774 435 792 l 479 919 b 431 990 494 963 476 990 b 351 919 385 990 357 965 z m 465 803 b 433 731 435 785 426 750 b 500 711 440 713 464 697 l 594 746 b 644 836 640 763 660 796 b 556 857 631 876 599 883 z m 314 803 l 246 857 b 147 836 213 883 179 876 b 160 746 117 796 122 763 l 240 711 b 315 731 269 699 300 713 b 314 803 331 750 336 785 z m 461 681 b 389 681 442 703 408 696 b 369 608 371 667 356 635 l 408 531 b 503 522 426 494 463 490 b 519 617 540 551 549 586 z m 264 681 l 178 617 b 157 522 138 586 131 553 b 254 531 185 492 222 494 l 325 608 b 338 681 349 635 350 667 b 264 681 324 696 294 703 z "},"^":{"ha":532,"x_min":0,"x_max":0,"o":"m 349 711 l 403 531 b 475 507 411 504 444 493 b 542 551 501 519 529 538 b 557 608 556 567 563 593 l 443 899 b 392 917 439 910 413 918 b 333 899 371 918 342 910 l 94 608 b 85 551 82 593 78 567 b 135 507 90 538 111 521 b 215 531 157 494 196 504 z "},"˜":{"ha":439,"x_min":0,"x_max":0,"o":"m 157 869 b 136 801 138 847 131 821 b 190 781 142 782 171 772 b 292 790 236 800 261 815 b 506 833 353 739 431 750 b 526 901 525 856 532 882 b 471 922 521 921 490 932 b 361 922 407 890 399 892 b 157 869 307 967 226 946 z "},"/":{"ha":556,"x_min":0,"x_max":0,"o":"m 660 840 b 665 897 671 857 676 885 b 543 914 649 917 568 922 b 486 869 510 903 503 896 l -54 51 b -56 3 -65 35 -62 18 b 24 -18 -49 -11 -6 -17 b 110 14 54 -19 89 -17 z "},"\\":{"ha":528,"x_min":0,"x_max":0,"o":"m 115 840 l 313 14 b 385 -18 319 -17 354 -19 b 444 3 414 -17 432 -11 b 465 51 460 18 469 35 l 272 869 b 235 914 267 896 263 903 b 132 897 213 922 157 917 b 115 840 115 885 111 857 z "},":":{"ha":372,"x_min":0,"x_max":0,"o":"m 218 494 b 351 621 271 506 336 550 b 268 707 364 681 322 718 b 138 578 211 696 146 643 b 218 494 129 521 169 485 z m 110 -12 b 243 114 164 -1 228 43 b 161 200 256 174 214 211 b 31 71 104 189 40 136 b 110 -12 22 14 63 -22 z "},";":{"ha":419,"x_min":0,"x_max":0,"o":"m 257 494 b 390 621 310 506 375 550 b 307 707 403 681 361 718 b 176 578 250 696 185 643 b 257 494 168 521 208 485 z m 114 -12 b 89 -46 106 -26 97 -37 b 0 -114 76 -57 21 -87 b -1 -200 -25 -144 -25 -190 b 174 -137 39 -215 122 -181 b 285 118 238 -82 283 19 b 185 200 293 172 240 211 b 57 71 122 188 65 131 b 114 -12 50 28 78 -4 z "},"<":{"ha":672,"x_min":0,"x_max":0,"o":"m 307 428 l 626 549 b 667 658 679 568 686 628 b 578 686 651 685 617 703 l 125 489 b 78 428 101 479 82 450 b 106 361 71 403 82 374 l 468 168 b 575 203 503 150 549 174 b 575 306 603 235 618 286 z "},"=":{"ha":589,"x_min":0,"x_max":0,"o":"m 500 453 b 556 482 518 453 544 465 b 582 563 575 514 578 533 b 556 593 585 581 574 593 l 164 593 b 118 564 146 593 131 579 b 94 510 107 549 100 539 b 128 453 89 481 99 453 z m 453 228 b 507 257 471 228 497 240 b 535 338 526 289 531 308 b 507 368 538 356 525 368 l 115 368 b 71 339 97 368 82 354 b 47 285 60 324 53 314 b 81 228 40 256 51 228 z "},">":{"ha":672,"x_min":0,"x_max":0,"o":"m 404 413 l 86 292 b 42 189 35 272 28 221 b 135 154 56 160 92 136 l 578 347 b 633 414 607 360 632 389 b 614 475 640 436 632 465 l 244 672 b 144 644 213 689 171 671 b 138 535 111 614 93 556 z "},"!":{"ha":447,"x_min":0,"x_max":0,"o":"m 175 257 b 422 635 251 260 371 482 b 418 922 460 743 493 908 b 156 619 268 951 192 725 b 175 257 103 461 57 251 z m 121 -12 b 254 114 175 -1 239 43 b 172 200 267 174 225 211 b 42 71 115 189 51 136 b 121 -12 33 14 74 -22 z "},"?":{"ha":732,"x_min":0,"x_max":0,"o":"m 282 232 b 414 340 379 251 381 321 b 747 665 513 400 689 467 b 533 922 794 828 717 922 b 144 697 374 922 203 814 b 179 535 93 593 125 543 b 343 653 238 525 299 578 b 465 769 379 715 425 769 b 504 654 510 769 524 728 b 231 396 476 550 300 483 b 282 232 168 318 189 213 z m 272 -12 b 406 114 326 -1 390 43 b 324 200 418 174 376 211 b 193 71 267 189 203 136 b 272 -12 185 14 225 -22 z "},"'":{"ha":308,"x_min":0,"x_max":0,"o":"m 204 675 b 179 642 196 661 188 650 b 90 574 168 631 111 600 b 90 488 65 543 65 497 b 264 550 129 472 214 507 b 375 806 329 606 374 707 b 275 888 385 860 332 899 b 147 758 213 875 156 818 b 204 675 140 715 169 683 z "},"\"":{"ha":575,"x_min":0,"x_max":0,"o":"m 204 675 b 179 642 196 661 188 650 b 90 574 168 631 111 600 b 90 488 65 543 65 497 b 264 550 129 472 214 507 b 375 806 329 606 374 707 b 275 888 385 860 332 899 b 147 758 213 875 156 818 b 204 675 140 715 169 683 z m 471 675 b 446 642 463 661 454 650 b 357 574 435 631 378 600 b 357 488 332 543 332 497 b 531 550 396 472 481 507 b 642 806 596 606 640 707 b 542 888 651 860 599 899 b 414 758 479 875 422 818 b 471 675 407 715 436 683 z "},"#":{"ha":893,"x_min":0,"x_max":0,"o":"m 578 808 b 575 864 585 824 589 853 b 476 867 556 881 501 879 b 425 815 443 850 439 843 l 340 647 l 207 647 b 163 618 189 647 174 633 b 138 564 150 603 144 593 b 172 507 132 535 143 507 l 272 507 l 201 368 l 88 368 b 43 339 69 368 54 354 b 19 285 32 324 25 314 b 53 228 13 256 24 228 l 132 228 l 42 46 b 49 -1 32 28 38 13 b 104 -14 58 -14 74 -17 b 186 29 136 -10 171 -3 l 286 228 l 460 228 l 369 46 b 376 -1 360 28 365 13 b 432 -14 386 -14 401 -17 b 514 29 464 -10 499 -3 l 614 228 l 725 228 b 779 257 743 228 769 240 b 807 338 799 289 803 308 b 779 368 810 356 797 368 l 683 368 l 754 507 l 844 507 b 899 536 863 507 888 519 b 925 617 918 568 921 588 b 899 647 928 635 917 647 l 825 647 l 906 808 b 903 864 913 824 917 853 b 804 867 883 881 829 879 b 753 815 771 850 767 843 l 668 647 l 497 647 z m 356 368 l 426 507 l 600 507 l 529 368 z "},"@":{"ha":1181,"x_min":0,"x_max":0,"o":"m 193 350 b 685 772 247 604 443 772 b 1004 382 938 772 1056 626 b 850 188 978 260 922 189 b 792 294 797 186 778 226 l 829 469 b 703 679 857 597 803 679 b 432 540 593 679 497 631 b 397 353 368 453 354 382 b 550 428 433 329 497 360 b 661 558 597 489 633 558 b 642 418 682 558 667 522 b 319 163 475 342 350 242 b 400 68 299 107 332 68 b 606 193 482 68 567 121 b 792 53 608 103 678 53 b 1136 382 961 53 1093 179 b 713 904 1206 706 1044 904 b 61 350 390 904 132 683 b 489 -203 -10 18 160 -203 b 707 -153 568 -203 643 -189 b 743 -72 738 -135 753 -101 b 676 -46 735 -46 704 -44 b 517 -71 628 -47 572 -71 b 193 350 268 -71 140 97 z m 519 224 b 557 276 511 238 524 257 b 614 290 585 293 610 300 b 581 235 618 279 606 256 b 519 224 553 213 531 208 z "},"$":{"ha":724,"x_min":0,"x_max":0,"o":"m 307 324 b 397 199 406 311 447 264 b 300 161 374 167 335 157 b 222 221 264 167 231 189 b 135 285 213 260 183 290 b 22 154 69 278 33 226 b 176 13 10 81 69 28 l 150 -112 b 253 -203 136 -181 171 -215 b 363 -111 315 -193 351 -164 l 393 32 b 649 303 525 79 635 185 b 340 501 669 478 403 483 b 350 599 321 507 311 538 b 503 717 400 681 469 717 b 525 600 532 717 526 633 b 625 482 522 521 561 472 b 729 644 682 490 726 543 b 626 838 731 733 690 800 l 649 943 b 546 1033 663 1011 628 1046 b 436 942 483 1024 447 994 l 418 858 b 106 558 281 821 144 696 b 307 324 64 408 138 346 z "},"€":{"ha":851,"x_min":0,"x_max":0,"o":"m 115 433 l 179 433 b 171 382 176 415 174 399 l 107 382 b 43 328 82 382 53 353 b 67 265 33 303 40 265 l 171 265 b 408 -14 188 100 286 -14 b 735 182 479 -14 669 97 b 756 261 756 210 765 247 b 658 267 743 281 696 275 b 367 217 607 256 394 204 b 354 265 357 221 354 239 l 461 265 b 529 326 489 265 519 299 b 501 382 539 350 525 382 l 372 382 b 390 433 378 399 385 417 l 510 433 b 582 501 540 433 571 471 b 551 550 589 522 572 550 l 456 550 b 619 692 511 628 582 693 b 622 549 653 690 622 596 b 738 426 621 451 665 415 b 847 614 808 438 847 501 b 596 889 849 763 729 889 b 217 550 458 889 296 736 l 157 550 b 96 500 133 550 106 524 b 115 433 86 474 88 433 z "},"%":{"ha":1313,"x_min":0,"x_max":0,"o":"m 1028 840 b 1033 897 1039 857 1044 885 b 939 914 1017 917 964 922 b 882 869 906 903 899 896 l 342 51 b 340 3 331 35 333 18 b 392 -18 347 -11 363 -17 b 478 14 422 -19 457 -17 z m 110 583 b 294 288 69 390 193 288 b 604 583 397 288 564 390 b 422 889 646 776 525 889 b 110 583 321 889 151 776 z m 283 585 b 389 733 299 657 344 733 b 431 585 433 733 446 657 b 328 443 415 515 372 443 b 283 585 283 443 268 515 z m 753 282 b 938 -14 713 89 836 -14 b 1247 282 1040 -14 1207 89 b 1065 588 1289 475 1168 588 b 753 282 964 588 794 475 z m 926 283 b 1032 432 942 356 988 432 b 1074 283 1076 432 1089 356 b 971 142 1060 214 1015 142 b 926 283 926 142 913 214 z "},"&":{"ha":1013,"x_min":0,"x_max":0,"o":"m 286 535 b 292 476 286 517 288 496 b 36 226 161 413 64 332 b 236 -14 0 89 85 -14 b 560 67 342 -14 454 15 b 749 -14 624 18 690 -14 b 897 110 879 -14 928 97 b 751 190 846 131 797 158 b 874 317 797 229 838 271 b 879 431 918 374 925 418 b 715 399 828 444 756 438 b 617 310 681 365 649 336 b 503 576 533 403 485 504 b 644 700 522 654 579 704 b 675 592 669 699 667 625 b 797 525 689 533 728 510 b 863 738 874 542 908 639 b 606 889 819 829 729 889 b 286 535 419 889 286 742 z m 338 342 b 438 186 364 288 399 235 b 343 157 403 168 369 160 b 257 239 275 151 244 188 b 338 342 267 278 296 311 z "},"(":{"ha":506,"x_min":0,"x_max":0,"o":"m 293 399 b 585 943 338 606 424 774 b 568 1008 610 969 603 999 b 432 956 535 1018 469 988 b 99 396 260 804 147 624 b 193 -172 51 169 86 -12 b 307 -225 215 -206 268 -235 b 351 -156 344 -215 365 -183 b 293 399 264 22 249 190 z "},")":{"ha":506,"x_min":0,"x_max":0,"o":"m 243 399 b -51 -156 199 190 111 22 b -35 -225 -76 -183 -69 -215 b 101 -172 -1 -235 65 -206 b 438 396 275 -12 390 169 b 340 956 486 624 449 804 b 226 1008 317 988 265 1018 b 182 943 189 999 168 969 b 243 399 271 774 288 606 z "},"{":{"ha":622,"x_min":0,"x_max":0,"o":"m 336 365 b 432 518 393 400 425 453 b 463 790 444 626 435 682 b 550 853 471 824 513 853 l 649 853 b 713 957 682 853 704 900 b 682 1011 717 986 700 1011 l 521 1011 b 279 842 413 1011 303 947 b 236 511 250 713 251 640 b 179 444 232 481 210 444 l 125 444 b 50 364 78 444 56 392 b 90 283 43 336 43 283 l 144 283 b 175 224 175 283 185 254 b 76 -114 136 92 101 18 b 246 -283 64 -179 121 -283 l 407 -283 b 461 -229 425 -283 453 -258 b 440 -125 478 -172 474 -125 l 342 -125 b 281 -62 315 -125 274 -99 b 368 217 304 49 333 106 b 336 365 389 281 379 332 z "},"|":{"ha":417,"x_min":0,"x_max":0,"o":"m -7 -229 b 31 -282 -11 -250 1 -274 b 188 -229 64 -292 178 -274 l 439 956 b 401 1008 443 976 431 1000 b 244 956 368 1018 254 1000 z "},"}":{"ha":622,"x_min":0,"x_max":0,"o":"m 303 365 b 207 217 246 332 214 281 b 175 -62 194 106 199 49 b 89 -125 168 -99 115 -125 l -10 -125 b -75 -229 -43 -125 -65 -172 b -43 -283 -79 -258 -61 -283 l 118 -283 b 360 -114 243 -283 344 -179 b 403 224 390 18 386 92 b 458 283 407 254 428 283 l 513 283 b 589 364 560 283 582 336 b 547 444 594 392 594 444 l 493 444 b 464 511 463 444 456 481 b 563 842 503 640 536 713 b 393 1011 583 947 501 1011 l 232 1011 b 176 957 214 1011 185 986 b 199 853 161 900 165 853 l 297 853 b 357 790 335 853 363 824 b 271 518 338 682 306 626 b 303 365 250 453 260 400 z "},"[":{"ha":508,"x_min":0,"x_max":0,"o":"m -35 -229 b 3 -282 -39 -250 -26 -274 b 60 -282 14 -285 35 -285 l 293 -282 b 358 -178 326 -282 350 -235 b 326 -124 363 -149 344 -124 l 182 -124 l 390 853 l 535 853 b 599 957 568 853 590 900 b 568 1011 603 986 586 1011 l 361 1011 b 217 956 303 1021 225 992 z "},"]":{"ha":508,"x_min":0,"x_max":0,"o":"m 560 960 b 522 1013 564 981 551 1004 b 465 1013 510 1015 489 1015 l 232 1013 b 167 908 199 1013 175 965 b 199 854 163 879 181 854 l 343 854 l 135 -122 l -10 -122 b -75 -226 -43 -122 -67 -169 b -43 -281 -79 -256 -61 -281 l 164 -281 b 308 -225 217 -289 299 -272 z "},"‘":{"ha":308,"x_min":0,"x_max":0,"o":"m 86 565 b 186 483 76 511 129 472 b 314 613 249 496 306 553 b 256 696 319 656 292 688 b 282 729 265 710 272 721 b 371 797 293 740 350 771 b 371 883 396 828 396 874 b 197 821 332 899 247 864 b 86 565 132 765 88 664 z "},"’":{"ha":308,"x_min":0,"x_max":0,"o":"m 204 675 b 179 642 196 661 188 650 b 90 574 168 631 111 600 b 90 488 65 543 65 497 b 264 550 129 472 214 507 b 375 806 329 606 374 707 b 275 888 385 860 332 899 b 147 758 213 875 156 818 b 204 675 140 715 169 683 z "},"“":{"ha":575,"x_min":0,"x_max":0,"o":"m 353 565 b 453 483 343 511 396 472 b 581 613 515 496 572 553 b 522 696 586 656 558 688 b 549 729 532 710 539 721 b 638 797 560 740 617 771 b 638 883 663 828 663 874 b 464 821 599 899 514 864 b 353 565 399 765 354 664 z m 86 565 b 186 483 76 511 129 472 b 314 613 249 496 306 553 b 256 696 319 656 292 688 b 282 729 265 710 272 721 b 371 797 293 740 350 771 b 371 883 396 828 396 874 b 197 821 332 899 247 864 b 86 565 132 765 88 664 z "},"”":{"ha":575,"x_min":0,"x_max":0,"o":"m 204 675 b 179 642 196 661 188 650 b 90 574 168 631 111 600 b 90 488 65 543 65 497 b 264 550 129 472 214 507 b 375 806 329 606 374 707 b 275 888 385 860 332 899 b 147 758 213 875 156 818 b 204 675 140 715 169 683 z m 471 675 b 446 642 463 661 454 650 b 357 574 435 631 378 600 b 357 488 332 543 332 497 b 531 550 396 472 481 507 b 642 806 596 606 640 707 b 542 888 651 860 599 899 b 414 758 479 875 422 818 b 471 675 407 715 436 683 z "},"‚":{"ha":364,"x_min":0,"x_max":0,"o":"m 86 -12 b 61 -46 78 -26 69 -37 b -28 -114 49 -57 -7 -87 b -29 -200 -53 -144 -53 -190 b 146 -137 11 -215 94 -181 b 257 118 210 -82 256 19 b 157 200 265 172 213 211 b 29 71 94 188 38 131 b 86 -12 22 28 50 -4 z "},"„":{"ha":631,"x_min":0,"x_max":0,"o":"m 86 -12 b 61 -46 78 -26 69 -37 b -28 -114 49 -57 -7 -87 b -29 -200 -53 -144 -53 -190 b 146 -137 11 -215 94 -181 b 257 118 210 -82 256 19 b 157 200 265 172 213 211 b 29 71 94 188 38 131 b 86 -12 22 28 50 -4 z m 353 -12 b 328 -46 344 -26 336 -37 b 239 -114 315 -57 260 -87 b 238 -200 214 -144 214 -190 b 413 -137 278 -215 361 -181 b 524 118 476 -82 522 19 b 424 200 532 172 479 211 b 296 71 361 188 304 131 b 353 -12 289 28 317 -4 z "},"•":{"ha":564,"x_min":0,"x_max":0,"o":"m 256 242 b 479 451 349 260 454 332 b 343 603 501 554 433 621 b 126 389 246 583 143 500 b 256 242 113 292 174 225 z "},"_":{"ha":604,"x_min":0,"x_max":0,"o":"m 378 -196 b 432 -167 396 -196 422 -183 b 464 -68 451 -135 460 -97 b 436 -37 467 -50 454 -37 l 29 -37 b -15 -67 11 -37 -4 -51 b -43 -139 -28 -82 -37 -110 b -10 -196 -50 -168 -39 -196 z "},"–":{"ha":897,"x_min":0,"x_max":0,"o":"m 782 325 b 836 354 800 325 826 338 b 867 453 856 386 863 424 b 840 483 869 471 858 483 l 140 483 b 96 454 122 483 107 469 b 67 382 83 439 74 411 b 101 325 61 353 72 325 z "},"—":{"ha":1668,"x_min":0,"x_max":0,"o":"m 1553 325 b 1607 354 1571 325 1597 338 b 1638 453 1626 386 1633 424 b 1611 483 1640 471 1629 483 l 140 483 b 96 454 122 483 107 469 b 67 382 83 439 74 411 b 101 325 61 353 72 325 z "},"¯":{"ha":396,"x_min":0,"x_max":0,"o":"m 401 763 b 456 792 419 763 446 775 b 486 890 475 824 482 861 b 460 921 489 908 478 921 l 206 921 b 160 892 188 921 172 907 b 132 819 149 876 139 849 b 167 763 126 790 138 763 z "},"¬":{"ha":764,"x_min":0,"x_max":0,"o":"m 742 483 b 724 538 747 507 739 529 b 626 542 708 546 656 543 l 153 542 b 107 513 135 542 119 528 b 79 440 96 497 86 469 b 114 383 74 411 85 383 l 563 383 l 532 240 b 553 201 528 222 539 210 b 622 189 567 193 593 189 b 689 235 651 189 683 206 z "},"™":{"ha":1319,"x_min":0,"x_max":0,"o":"m 681 721 b 614 563 668 686 642 649 b 653 290 571 429 561 289 b 808 403 704 290 819 372 b 756 447 796 433 739 400 b 814 618 768 479 781 518 b 865 488 825 558 843 506 b 999 494 886 476 975 478 b 1135 640 1032 518 1086 579 b 1118 585 1129 624 1124 606 b 1154 290 1075 425 1064 285 b 1306 407 1207 294 1318 379 b 1264 447 1292 439 1251 403 b 1306 586 1275 485 1290 526 b 1260 888 1358 790 1326 883 b 1129 803 1215 890 1176 856 b 981 625 1082 750 1025 681 b 908 868 964 708 938 818 b 874 888 900 882 892 886 b 642 765 806 888 639 818 b 681 721 644 729 699 768 z m 272 717 b 219 583 249 676 232 632 b 299 290 161 365 224 285 b 407 407 351 293 418 379 b 365 447 393 439 353 403 b 407 594 375 485 389 526 b 451 746 428 675 443 710 b 601 757 524 747 586 751 b 674 847 626 767 657 811 b 656 881 682 868 675 875 b 154 864 619 889 211 882 b 108 765 131 856 107 776 b 131 744 110 756 115 746 b 290 744 140 744 210 743 b 272 717 283 735 276 725 z "},"®":{"ha":1356,"x_min":0,"x_max":0,"o":"m 85 467 b 575 -156 6 94 203 -156 b 1329 467 947 -156 1250 94 b 840 1089 1408 839 1213 1089 b 85 467 468 1089 164 839 z m 229 467 b 810 944 290 753 524 944 b 1185 467 1096 944 1246 753 b 606 -11 1125 181 892 -11 b 229 467 319 -11 169 181 z m 472 631 b 415 467 458 586 435 539 b 488 90 346 208 376 82 b 607 211 547 94 618 168 b 571 289 599 247 553 231 b 596 371 578 314 588 340 b 626 342 606 360 617 350 b 807 92 629 192 696 92 b 926 224 865 92 942 176 b 872 258 918 247 901 228 b 810 346 851 281 824 310 b 1013 603 908 389 988 482 b 829 849 1044 750 956 849 b 674 806 778 849 721 831 b 639 847 668 832 656 846 b 419 686 550 853 406 722 b 472 631 436 643 492 692 z m 668 638 b 817 703 699 685 775 731 b 786 532 843 686 831 599 b 663 471 751 479 699 461 b 668 638 607 488 635 589 z "},"©":{"ha":1356,"x_min":0,"x_max":0,"o":"m 85 467 b 575 -156 6 94 203 -156 b 1329 467 947 -156 1250 94 b 840 1089 1408 839 1213 1089 b 85 467 468 1089 164 839 z m 229 467 b 810 944 290 753 524 944 b 1185 467 1096 944 1246 753 b 606 -11 1125 181 892 -11 b 229 467 319 -11 169 181 z m 415 458 b 615 104 371 249 479 104 b 893 271 676 104 838 199 b 913 338 913 294 921 325 b 829 343 901 354 863 350 b 581 300 786 335 604 289 b 608 483 556 311 568 407 b 788 664 651 564 746 665 b 790 540 815 663 789 576 b 888 436 793 458 825 426 b 981 597 949 446 981 500 b 767 831 982 724 879 831 b 415 458 628 831 456 650 z "},"¤":{"ha":785,"x_min":0,"x_max":0,"o":"m 165 439 b 165 339 157 401 160 369 l 69 260 b 76 124 14 214 17 175 b 174 131 106 99 128 93 l 274 213 b 364 196 300 201 331 196 b 465 213 399 196 433 201 l 529 131 b 674 167 565 85 607 96 b 686 263 706 201 715 225 l 625 340 b 665 439 644 369 658 403 b 667 538 674 475 674 508 l 763 617 b 756 753 818 663 815 703 b 658 746 726 778 704 783 l 561 665 b 467 682 535 676 501 682 b 369 665 433 682 401 676 l 304 749 b 160 713 268 794 225 782 b 146 617 128 678 117 654 l 207 539 b 165 439 189 508 174 476 z m 325 439 b 439 550 339 506 385 550 b 506 439 493 550 519 506 b 392 328 492 372 446 328 b 325 439 338 328 311 372 z "},"¢":{"ha":639,"x_min":0,"x_max":0,"o":"m 149 13 b 251 -78 135 -56 169 -93 b 347 14 306 -68 336 -39 l 376 147 b 561 299 442 185 521 246 b 581 369 582 326 589 356 b 481 367 568 389 519 378 b 254 322 429 351 282 310 b 296 503 232 332 256 435 b 454 622 351 594 429 632 b 450 528 468 617 450 575 b 542 443 449 472 469 432 b 631 558 586 450 624 508 b 532 803 643 661 601 756 l 550 892 b 461 982 564 960 543 994 b 351 890 399 972 363 943 l 335 808 b 86 472 222 754 117 618 b 176 143 54 324 97 200 z "},"£":{"ha":843,"x_min":0,"x_max":0,"o":"m 56 138 b 57 0 46 117 15 14 b 660 8 90 -11 632 -4 b 746 140 714 33 739 117 b 694 185 754 164 736 188 b 311 181 588 179 436 181 b 408 339 351 224 388 279 l 588 339 b 658 407 618 339 649 376 b 629 456 665 428 650 456 l 429 456 b 442 599 432 506 432 554 b 535 738 460 685 492 733 b 601 663 578 742 592 725 b 715 544 614 588 653 535 b 819 707 774 553 826 603 b 558 890 813 818 710 890 b 210 611 363 890 239 792 b 207 456 204 576 208 519 l 136 456 b 74 406 113 456 83 429 b 94 339 64 379 67 339 l 189 339 b 88 168 168 275 129 213 b 56 138 74 163 63 153 z "},"¥":{"ha":826,"x_min":0,"x_max":0,"o":"m 621 640 b 469 450 603 528 540 450 b 431 674 396 450 381 526 b 369 888 474 799 458 879 b 139 694 263 897 115 739 b 206 639 161 651 222 700 b 233 347 168 504 182 407 l 150 347 b 89 303 126 347 97 324 b 111 244 79 281 83 244 l 660 244 b 731 304 690 244 721 278 b 699 347 736 322 719 347 l 622 347 b 846 685 738 419 821 538 b 769 888 868 818 844 881 b 551 694 663 897 529 736 b 621 640 575 650 629 692 z m 272 92 b 390 -17 264 18 331 -14 b 535 92 439 -19 511 25 l 628 92 b 697 151 658 92 688 125 b 667 194 704 169 688 194 l 118 194 b 57 150 94 194 65 171 b 79 92 49 128 51 92 z "},"−":{"ha":493,"x_min":0,"x_max":0,"o":"m 368 281 b 422 310 386 281 413 293 b 453 408 442 342 449 379 b 426 439 456 426 444 439 l 131 439 b 86 410 113 439 97 425 b 58 338 74 394 64 367 b 92 281 51 308 63 281 z "},"±":{"ha":593,"x_min":0,"x_max":0,"o":"m 278 619 l 258 529 l 163 529 b 118 500 144 529 129 515 b 90 428 106 485 97 457 b 125 371 85 399 96 371 l 225 371 l 203 271 b 250 225 196 242 222 229 b 324 231 275 221 307 222 b 361 269 342 239 357 251 l 383 371 l 475 371 b 529 400 493 371 519 383 b 557 499 549 432 553 469 b 531 529 560 517 549 529 l 417 529 l 440 640 b 417 674 444 658 435 671 b 317 668 383 679 343 678 b 278 619 299 661 282 638 z m 401 28 b 457 57 419 28 446 40 b 485 156 476 89 479 126 b 457 186 488 174 475 186 l 89 186 b 44 157 71 186 56 172 b 18 85 33 142 24 114 b 51 28 13 56 22 28 z "},"×":{"ha":549,"x_min":0,"x_max":0,"o":"m 321 165 b 372 151 331 153 354 144 b 461 217 407 165 438 196 b 468 263 475 231 479 249 l 390 363 l 508 460 b 519 506 525 474 526 490 b 460 571 506 535 482 561 b 403 557 444 578 419 569 l 301 474 l 233 561 b 186 568 222 575 204 574 b 118 525 168 564 144 546 b 94 453 93 504 78 474 l 165 363 l 57 272 b 49 199 31 251 36 222 b 93 151 58 179 78 156 b 143 158 110 146 128 146 l 254 250 z "},"÷":{"ha":590,"x_min":0,"x_max":0,"o":"m 246 589 b 329 483 232 525 265 483 b 457 589 393 483 443 525 b 374 694 471 653 438 694 b 246 589 310 694 260 653 z m 465 281 b 519 310 483 281 510 293 b 550 408 539 342 546 379 b 524 439 553 426 542 439 l 131 439 b 86 410 113 439 97 425 b 58 338 74 394 64 367 b 92 281 51 308 63 281 z m 149 128 b 231 22 135 64 167 22 b 360 128 294 22 346 64 b 276 233 372 192 340 233 b 149 128 213 233 161 192 z "},"¦":{"ha":417,"x_min":0,"x_max":0,"o":"m 156 538 b 193 485 151 517 164 493 b 350 538 228 475 340 493 l 439 956 b 401 1008 443 976 431 1000 b 244 956 368 1018 254 1000 z m -7 -229 b 31 -282 -11 -250 1 -274 b 188 -229 64 -292 178 -274 l 276 189 b 239 242 281 210 268 233 b 82 189 204 251 92 233 z "},"·":{"ha":414,"x_min":0,"x_max":0,"o":"m 204 331 b 331 457 257 342 315 386 b 254 543 343 517 308 554 b 131 414 197 532 139 479 b 204 331 122 357 156 321 z "},"¡":{"ha":447,"x_min":0,"x_max":0,"o":"m 385 942 b 251 815 331 931 267 886 b 335 729 239 756 281 718 b 464 858 390 740 454 793 b 385 942 472 915 433 951 z m 331 672 b 83 294 254 669 135 447 b 88 7 46 186 13 21 b 350 310 239 -22 314 204 b 331 672 404 468 449 678 z "},"¿":{"ha":732,"x_min":0,"x_max":0,"o":"m 513 913 b 378 786 458 901 393 857 b 461 700 365 726 407 689 b 592 829 518 711 582 764 b 513 913 600 886 560 922 z m 501 668 b 371 560 404 649 404 579 b 38 235 272 500 94 433 b 251 -22 -10 72 68 -22 b 640 203 411 -22 582 86 b 606 365 692 307 660 357 b 442 247 546 375 485 322 b 319 131 404 185 360 131 b 281 246 275 131 260 172 b 554 504 308 350 485 417 b 501 668 617 582 596 688 z "},"°":{"ha":533,"x_min":0,"x_max":0,"o":"m 104 685 b 300 478 78 561 156 478 b 582 685 442 478 556 561 b 388 890 607 807 529 890 b 104 685 243 890 129 807 z m 278 685 b 358 751 286 724 318 751 b 408 685 396 751 417 724 b 331 618 400 644 368 618 b 278 685 290 618 269 644 z "},"⁄":{"ha":556,"x_min":0,"x_max":0,"o":"m 660 840 b 665 897 671 857 676 885 b 543 914 649 917 568 922 b 486 869 510 903 503 896 l -54 51 b -56 3 -65 35 -62 18 b 24 -18 -49 -11 -6 -17 b 110 14 54 -19 89 -17 z "},"‰":{"ha":1871,"x_min":0,"x_max":0,"o":"m 1028 840 b 1033 897 1039 857 1044 885 b 939 914 1017 917 964 922 b 882 869 906 903 899 896 l 342 51 b 340 3 331 35 333 18 b 392 -18 347 -11 363 -17 b 478 14 422 -19 457 -17 z m 110 583 b 294 288 69 390 193 288 b 604 583 397 288 564 390 b 422 889 646 776 525 889 b 110 583 321 889 151 776 z m 283 585 b 389 733 299 657 344 733 b 431 585 433 733 446 657 b 328 443 415 515 372 443 b 283 585 283 443 268 515 z m 753 282 b 938 -14 713 89 836 -14 b 1247 282 1040 -14 1207 89 b 1065 588 1289 475 1168 588 b 753 282 964 588 794 475 z m 1311 282 b 1496 -14 1271 89 1394 -14 b 1806 282 1599 -14 1765 89 b 1624 588 1847 475 1726 588 b 1311 282 1522 588 1353 475 z m 926 283 b 1032 432 942 356 988 432 b 1074 283 1076 432 1089 356 b 971 142 1060 214 1015 142 b 926 283 926 142 913 214 z m 1485 283 b 1590 432 1500 356 1546 432 b 1632 283 1635 432 1647 356 b 1529 142 1618 214 1574 142 b 1485 283 1485 142 1471 214 z "},"μ":{"ha":778,"x_min":0,"x_max":0,"o":"m 131 450 b 25 97 92 333 56 214 b 107 -211 -19 -72 -33 -218 b 256 -69 185 -207 275 -104 b 190 -21 233 -32 172 -76 b 197 1 192 -14 194 -6 b 456 264 283 38 375 139 b 551 -14 410 76 443 -19 b 703 139 631 -10 722 104 b 638 188 681 176 621 132 b 693 374 651 232 668 282 b 692 708 749 569 771 704 b 458 529 586 714 442 574 b 501 506 468 506 488 507 b 315 274 425 367 376 274 b 353 478 272 274 328 414 b 308 708 411 628 396 701 b 72 515 203 715 54 560 b 131 450 92 465 154 522 z "},"¶":{"ha":1000,"x_min":0,"x_max":0,"o":"m 264 -229 b 301 -282 260 -250 272 -274 b 458 -229 335 -292 449 -274 l 693 878 b 656 931 697 899 685 922 b 108 576 526 969 168 854 b 364 242 67 378 169 246 z m 576 -229 b 614 -282 572 -250 585 -274 b 771 -229 647 -292 761 -274 l 1006 878 b 968 931 1010 899 997 922 b 811 878 935 940 821 922 z "},"§":{"ha":664,"x_min":0,"x_max":0,"o":"m 239 101 b 318 -1 324 89 360 54 b 233 -33 297 -29 263 -37 b 167 18 203 -29 174 -10 b 90 72 157 51 133 76 b -19 -40 35 65 -10 22 b 189 -167 -31 -117 50 -167 b 547 88 351 -167 532 -49 b 496 199 553 138 532 174 b 607 367 556 244 600 303 b 331 553 625 518 386 535 b 340 650 313 558 307 590 b 474 758 388 733 446 758 b 494 658 499 758 496 688 b 579 557 492 590 525 549 b 683 697 628 564 681 610 b 474 890 686 815 597 890 b 117 606 326 890 158 757 b 129 460 99 543 106 494 b 57 326 96 419 69 374 b 239 101 19 188 93 122 z m 297 381 b 378 278 382 368 419 333 b 351 256 369 268 361 261 b 271 274 317 264 286 268 b 282 371 254 279 249 311 b 288 382 285 375 286 378 b 297 381 290 382 294 381 z "},"~":{"ha":613,"x_min":0,"x_max":0,"o":"m 85 397 b 61 322 64 375 56 342 b 115 294 69 296 92 285 b 296 299 161 314 214 339 b 547 347 368 263 472 264 b 572 429 568 369 578 410 b 517 450 567 449 535 460 b 361 442 453 417 424 413 b 85 397 265 488 153 474 z "},"‹":{"ha":439,"x_min":0,"x_max":0,"o":"m 225 147 b 313 151 243 126 278 129 b 349 249 350 175 372 215 l 264 374 l 401 497 b 407 594 439 531 433 571 b 321 599 381 617 349 619 l 93 422 b 72 324 65 400 54 346 z "},"›":{"ha":440,"x_min":0,"x_max":0,"o":"m 367 324 b 388 422 394 344 406 401 l 235 599 b 146 594 217 621 181 617 b 110 497 108 571 86 531 l 194 374 l 57 249 b 51 151 19 215 25 175 b 139 147 78 129 111 125 z "},"«":{"ha":757,"x_min":0,"x_max":0,"o":"m 225 147 b 313 151 243 126 278 129 b 349 249 350 175 372 215 l 264 374 l 401 497 b 407 594 439 531 433 571 b 321 599 381 617 349 619 l 93 422 b 72 324 65 400 54 346 z m 543 147 b 631 151 561 126 596 129 b 667 249 668 175 690 215 l 582 374 l 719 497 b 725 594 757 531 751 571 b 639 599 699 617 667 619 l 411 422 b 390 324 383 400 372 346 z "},"»":{"ha":758,"x_min":0,"x_max":0,"o":"m 685 324 b 706 422 713 344 724 401 l 553 599 b 464 594 535 621 499 617 b 428 497 426 571 404 531 l 513 374 l 375 249 b 369 151 338 215 343 175 b 457 147 396 129 429 125 z m 367 324 b 388 422 394 344 406 401 l 235 599 b 146 594 217 621 181 617 b 110 497 108 571 86 531 l 194 374 l 57 249 b 51 151 19 215 25 175 b 139 147 78 129 111 125 z "},"ı":{"ha":339,"x_min":0,"x_max":0,"o":"m 107 450 b 54 292 90 397 74 357 b 139 -17 6 122 -1 -24 b 289 125 218 -12 308 90 b 224 174 267 163 206 118 b 279 358 236 218 254 268 b 281 708 335 556 360 704 b 44 515 175 714 26 560 b 107 450 64 465 129 522 z "},"Þ":{"ha":682,"x_min":0,"x_max":0,"o":"m 144 629 b 82 428 128 576 107 519 b 139 -17 18 186 -1 -28 b 236 135 211 -11 243 82 b 325 97 261 111 292 97 b 685 472 483 97 640 263 b 482 778 724 654 625 778 b 371 754 444 778 407 769 b 319 888 376 828 364 885 b 82 694 214 894 64 739 b 144 629 103 644 167 701 z m 319 489 b 494 608 368 571 450 632 b 471 429 526 592 508 500 b 293 299 440 372 357 283 b 319 489 242 311 293 446 z "},"þ":{"ha":638,"x_min":0,"x_max":0,"o":"m 154 671 b 54 294 114 544 82 422 b 96 -237 -31 -101 -19 -237 b 232 -106 168 -237 250 -154 b 188 0 214 -58 168 -75 b 269 -14 213 -10 239 -14 b 622 383 421 -14 575 160 b 501 708 668 596 625 708 b 328 567 454 708 392 654 b 328 929 379 781 396 925 b 92 736 222 935 74 781 b 154 671 113 686 178 743 z m 285 369 b 447 497 340 449 418 510 b 404 317 471 488 446 385 b 247 197 361 244 283 186 b 285 369 213 208 253 324 z "},"ß":{"ha":899,"x_min":0,"x_max":0,"o":"m 738 739 b 471 999 753 878 613 1017 b 97 510 307 978 154 779 b 60 218 74 401 69 296 b -26 168 53 160 14 218 b 54 -14 -62 124 -22 -8 b 261 179 144 -21 226 53 b 310 510 281 246 297 401 b 447 865 332 682 400 856 b 504 736 518 879 517 799 b 369 472 486 651 390 542 b 551 265 339 368 389 311 b 621 153 629 243 654 194 b 524 132 604 131 551 118 b 482 186 500 144 488 163 b 413 229 474 219 458 239 b 300 125 365 219 307 176 b 501 -14 290 44 354 -14 b 854 254 678 -14 839 108 b 585 442 869 408 640 421 b 601 511 565 449 574 479 b 738 739 625 539 726 643 z "},"ð":{"ha":765,"x_min":0,"x_max":0,"o":"m 731 363 b 689 729 760 503 744 632 l 786 782 b 806 863 814 797 821 831 b 750 890 792 890 763 897 l 617 819 b 499 890 583 850 544 874 b 317 861 446 910 356 908 b 325 707 289 828 276 757 b 361 682 332 700 346 692 l 304 651 b 283 557 278 638 257 590 b 339 542 293 544 324 533 l 454 604 b 514 451 485 568 510 518 b 318 499 464 482 399 499 b 15 268 169 499 44 404 b 276 -14 -19 106 90 -14 b 731 363 492 -14 685 147 z m 496 307 b 349 169 465 210 407 169 b 251 265 283 169 239 208 b 378 364 264 324 313 364 b 496 307 426 364 464 342 z "},"Æ":{"ha":939,"x_min":0,"x_max":0,"o":"m 4 213 b 28 -1 -46 113 -62 17 b 235 118 119 -19 235 63 b 203 203 236 174 186 160 b 214 228 206 210 210 219 b 382 232 269 232 326 232 b 483 -11 351 51 386 -22 b 775 8 569 -10 744 -11 b 867 132 813 31 838 65 b 842 182 881 163 871 176 b 638 156 808 189 744 164 b 585 226 589 153 572 183 b 629 381 596 268 610 311 b 783 389 719 382 765 385 b 854 464 806 394 835 431 b 829 514 871 493 858 508 b 665 518 806 518 758 519 b 704 714 685 592 697 658 b 906 722 793 714 881 717 b 982 825 928 728 963 792 b 957 875 1000 854 986 869 b 692 872 918 883 781 881 b 657 888 682 885 674 888 b 317 738 472 890 318 789 b 321 649 315 679 368 714 b 140 425 288 601 217 521 b 75 335 124 403 100 371 b 38 329 63 336 49 333 b -15 242 3 317 -18 263 b 4 213 -14 231 -10 217 z m 300 354 b 465 558 357 428 424 506 b 414 382 449 500 432 442 b 413 375 414 381 414 378 l 408 363 b 407 356 408 360 408 358 b 396 356 403 356 400 356 b 300 354 365 356 333 356 z "},"Ð":{"ha":824,"x_min":0,"x_max":0,"o":"m 168 629 b 132 515 157 596 146 560 l 92 515 b 46 486 74 515 58 501 b 18 414 35 471 25 443 b 53 357 13 385 24 357 l 89 357 b 163 -17 39 146 36 -26 b 256 25 193 -14 226 3 b 350 -14 283 1 315 -14 b 801 431 531 -14 753 206 b 549 889 856 683 742 889 b 386 839 492 889 435 869 b 343 888 379 871 365 886 b 106 694 238 894 88 739 b 168 629 126 644 190 701 z m 275 260 b 304 357 283 288 293 319 l 385 357 b 439 386 403 357 429 369 b 469 485 458 418 465 456 b 443 515 472 503 461 515 l 344 515 b 375 649 357 576 368 633 b 568 699 396 689 535 718 b 550 386 621 668 601 489 b 304 183 482 250 358 165 b 275 260 272 194 261 218 z "},"Đ":{"ha":824,"x_min":0,"x_max":0,"o":"m 168 629 b 132 515 157 596 146 560 l 92 515 b 46 486 74 515 58 501 b 18 414 35 471 25 443 b 53 357 13 385 24 357 l 89 357 b 163 -17 39 146 36 -26 b 256 25 193 -14 226 3 b 350 -14 283 1 315 -14 b 801 431 531 -14 753 206 b 549 889 856 683 742 889 b 386 839 492 889 435 869 b 343 888 379 871 365 886 b 106 694 238 894 88 739 b 168 629 126 644 190 701 z m 275 260 b 304 357 283 288 293 319 l 385 357 b 439 386 403 357 429 369 b 469 485 458 418 465 456 b 443 515 472 503 461 515 l 344 515 b 375 649 357 576 368 633 b 568 699 396 689 535 718 b 550 386 621 668 601 489 b 304 183 482 250 358 165 b 275 260 272 194 261 218 z "},"Ł":{"ha":661,"x_min":0,"x_max":0,"o":"m 196 629 b 132 419 179 576 158 519 b 126 399 131 413 128 406 l 35 364 b -3 292 6 353 -6 315 b 56 244 1 261 22 232 l 96 260 b 192 -11 60 64 90 -15 b 525 8 278 -10 494 -11 b 617 132 563 31 588 65 b 592 182 631 163 621 176 b 339 154 558 189 449 165 b 293 226 293 150 281 178 b 328 349 303 261 313 297 l 485 408 b 526 449 504 415 521 431 b 526 504 533 476 532 489 b 463 526 518 529 489 536 l 367 490 b 371 888 426 717 444 883 b 133 694 265 893 115 739 b 196 629 154 644 218 701 z "},"Ø":{"ha":789,"x_min":0,"x_max":0,"o":"m 56 431 b 114 106 28 299 57 185 l 32 -18 b 32 -67 21 -35 24 -51 b 118 -87 39 -81 99 -85 b 192 -56 147 -92 171 -86 l 233 6 b 318 -14 261 -7 289 -14 b 769 431 472 -14 715 174 b 731 736 794 549 774 656 l 828 885 b 835 942 839 901 846 929 b 717 958 818 961 742 967 b 660 914 683 947 676 940 l 621 856 b 510 889 585 878 547 889 b 56 431 357 889 110 688 z m 292 489 b 567 667 379 631 526 682 b 531 381 603 654 594 485 b 257 201 446 239 297 188 b 292 489 221 215 228 383 z "},"Œ":{"ha":1015,"x_min":0,"x_max":0,"o":"m 35 431 b 283 -14 -19 174 136 -14 b 457 49 335 -14 396 8 b 560 -11 472 7 503 -18 b 851 8 646 -10 821 -11 b 943 132 889 31 914 65 b 918 182 957 163 947 176 b 714 156 885 189 821 164 b 661 226 665 153 649 183 b 696 343 671 260 681 294 b 707 381 701 357 704 369 b 860 389 796 382 842 385 b 931 464 882 394 911 431 b 906 514 947 493 935 508 b 742 518 882 518 835 519 b 781 714 761 592 774 658 b 982 722 869 714 957 717 b 1058 825 1004 728 1039 792 b 1033 875 1076 854 1063 869 b 768 872 994 883 857 881 b 739 888 761 882 751 888 b 607 836 697 890 650 867 b 475 889 567 869 521 889 b 35 431 328 889 89 688 z m 271 489 b 518 667 358 631 478 682 b 482 381 554 654 546 485 b 208 201 397 239 249 188 b 271 489 172 215 207 383 z "},"æ":{"ha":940,"x_min":0,"x_max":0,"o":"m 107 513 b 67 293 33 410 17 326 b 247 381 110 264 185 300 b 403 565 303 453 371 565 b 385 400 428 565 414 524 b -1 100 189 311 33 192 b 94 -14 -26 33 14 -14 b 332 92 163 -14 269 33 b 406 -14 321 29 351 -14 b 475 17 425 -14 450 -1 b 575 -14 504 -3 538 -14 b 858 174 638 -14 793 89 b 876 244 879 201 886 231 b 778 242 864 264 817 253 b 551 197 726 226 579 185 b 546 253 542 201 540 224 b 935 440 735 271 911 351 b 728 708 971 571 865 708 b 572 647 676 708 622 686 b 450 708 547 686 506 708 b 107 513 339 708 196 635 z m 618 379 b 606 397 600 374 594 382 b 754 526 656 471 728 535 b 739 438 772 521 761 465 b 618 379 722 417 676 396 z m 235 171 b 279 233 225 188 240 211 b 353 254 310 251 347 265 b 306 185 358 242 335 208 b 235 171 272 158 246 153 z "},"đ":{"ha":660,"x_min":0,"x_max":0,"o":"m 475 671 b 474 669 475 671 474 669 l 472 667 b 472 665 472 667 472 665 l 469 654 b 469 653 469 654 469 653 l 467 650 b 376 708 453 688 422 708 b 32 347 236 708 72 536 b 224 -14 -11 144 83 -14 b 363 101 267 -14 315 33 b 460 -17 369 17 401 -21 b 619 168 539 -11 638 124 b 556 232 600 218 535 160 b 622 463 572 290 593 356 b 685 736 650 568 672 661 b 735 765 703 738 725 750 b 760 836 754 797 754 807 b 733 867 763 854 751 867 l 693 867 b 649 929 689 906 675 928 b 493 867 597 932 538 903 l 438 867 b 392 840 419 867 403 856 b 367 779 379 825 374 808 b 404 736 361 750 375 736 l 446 736 b 475 671 468 722 492 724 z m 382 318 b 200 197 342 239 235 183 b 242 378 178 207 200 310 b 400 497 297 469 375 507 b 382 318 428 486 418 389 z "},"ł":{"ha":435,"x_min":0,"x_max":0,"o":"m 208 671 b 153 492 192 618 169 557 b 139 435 147 472 142 453 l 40 394 b 3 322 11 382 0 346 b 63 275 7 292 29 261 l 108 294 b 193 -17 75 104 86 -25 b 353 168 272 -11 371 124 b 289 232 333 218 268 160 b 336 389 301 275 318 324 l 422 425 b 463 465 440 433 457 447 b 464 521 469 493 468 506 b 399 543 456 546 426 554 l 372 532 b 382 929 431 764 454 925 b 146 736 276 935 128 781 b 208 671 167 686 231 743 z "},"ø":{"ha":619,"x_min":0,"x_max":0,"o":"m 32 347 b 67 93 11 246 28 157 l -15 -31 b -15 -79 -26 -47 -24 -64 b 36 -100 -8 -93 7 -99 b 122 -68 65 -101 103 -99 l 167 1 b 235 -14 189 -8 213 -14 b 589 347 360 -14 544 139 b 569 575 608 436 599 514 l 672 731 b 678 788 683 747 689 775 b 583 804 661 807 608 813 b 526 760 550 793 543 786 l 476 683 b 388 708 449 700 418 708 b 32 347 263 708 76 556 z m 242 378 b 411 497 297 469 386 507 b 379 317 435 489 421 385 b 211 197 324 225 238 188 b 242 378 188 206 200 310 z "},"œ":{"ha":958,"x_min":0,"x_max":0,"o":"m 32 347 b 235 -14 -12 139 110 -14 b 433 81 294 -14 368 21 b 593 -14 468 22 525 -14 b 876 174 656 -14 811 89 b 894 244 897 201 904 231 b 796 242 882 264 835 253 b 569 197 744 226 597 185 b 564 253 560 201 558 224 b 953 440 753 271 929 351 b 746 708 989 571 883 708 b 550 611 681 708 611 671 b 388 708 510 672 449 708 b 32 347 263 708 76 556 z m 636 379 b 624 397 618 374 613 382 b 772 526 674 471 746 535 b 757 438 790 521 779 465 b 636 379 740 417 694 396 z m 242 378 b 411 497 297 469 386 507 b 379 317 435 489 421 385 b 211 197 324 225 238 188 b 242 378 188 206 200 310 z "},"…":{"ha":908,"x_min":0,"x_max":0,"o":"m 75 -12 b 201 114 129 -1 188 43 b 126 200 215 174 179 211 b 3 71 69 189 13 136 b 75 -12 -6 14 28 -22 z m 378 -12 b 504 114 432 -1 490 43 b 429 200 518 174 482 211 b 306 71 372 189 315 136 b 378 -12 297 14 331 -22 z m 681 -12 b 807 114 735 -1 793 43 b 732 200 821 174 785 211 b 608 71 675 189 618 136 b 681 -12 600 14 633 -22 z "},"˘":{"ha":418,"x_min":0,"x_max":0,"o":"m 331 875 b 211 953 267 875 253 954 b 151 906 194 953 156 925 b 296 739 129 797 199 739 b 514 906 392 739 489 797 b 481 953 518 925 494 953 b 331 875 443 954 397 875 z "},"˙":{"ha":275,"x_min":0,"x_max":0,"o":"m 222 743 b 365 883 275 754 350 813 b 278 983 378 943 332 994 b 139 840 222 972 150 913 b 222 743 129 783 174 733 z "},"˚":{"ha":408,"x_min":0,"x_max":0,"o":"m 149 890 b 272 717 114 786 182 717 b 499 890 361 717 463 786 b 378 1064 533 994 467 1064 b 149 890 288 1064 185 994 z m 283 901 b 367 963 313 947 351 967 b 365 879 383 957 390 921 b 281 818 336 835 300 814 b 283 901 263 822 258 860 z "},"˝":{"ha":514,"x_min":0,"x_max":0,"o":"m 246 764 l 382 957 b 367 1036 400 982 390 1021 b 249 1018 319 1064 269 1058 l 129 788 b 135 746 121 771 124 757 b 192 731 149 733 172 729 b 246 764 208 732 233 746 z m 475 758 l 614 951 b 596 1032 633 978 622 1015 b 479 1014 550 1061 500 1053 l 360 783 b 365 740 351 767 353 753 b 422 725 378 728 403 722 b 475 758 439 726 464 742 z "},"˛":{"ha":340,"x_min":0,"x_max":0,"o":"m 174 -190 b 79 -133 135 -161 92 -175 b 175 22 67 -92 118 -32 l 68 22 b -78 -181 -17 -25 -74 -99 b 100 -301 -82 -272 -12 -310 b 182 -260 140 -299 171 -278 b 174 -190 197 -233 201 -211 z "},"ˇ":{"ha":492,"x_min":0,"x_max":0,"o":"m 500 1008 l 374 928 l 281 1008 b 228 1019 268 1019 244 1025 b 172 979 207 1013 185 997 b 167 935 160 963 158 949 l 285 756 b 333 738 292 743 313 738 b 390 756 356 738 378 744 l 583 935 b 597 979 597 949 601 963 b 558 1019 593 997 576 1013 b 500 1008 544 1025 518 1019 z "},"`":{"ha":390,"x_min":0,"x_max":0,"o":"m 339 732 b 392 721 351 721 375 715 b 449 761 413 728 436 743 b 453 806 460 778 463 793 l 297 1007 b 181 976 276 1036 226 1024 b 165 889 156 950 146 907 z "},"ˆ":{"ha":492,"x_min":0,"x_max":0,"o":"m 443 740 b 497 729 457 729 481 724 b 553 769 518 736 540 751 b 558 814 564 786 565 800 l 440 993 b 392 1011 433 1004 414 1011 b 335 993 371 1011 347 1006 l 142 814 b 128 769 126 800 122 786 b 167 729 132 751 149 736 b 224 740 181 724 207 729 l 351 821 z "},"¨":{"ha":446,"x_min":0,"x_max":0,"o":"m 208 769 b 325 883 251 778 313 826 b 256 965 336 933 299 975 b 140 849 208 956 150 907 b 208 769 133 801 171 761 z m 418 769 b 536 883 463 779 524 826 b 467 965 547 933 510 975 b 351 849 418 956 361 907 b 418 769 344 801 381 763 z "},"´":{"ha":390,"x_min":0,"x_max":0,"o":"m 224 732 l 464 889 b 485 976 492 907 499 950 b 356 1028 461 1024 389 1060 l 135 817 b 121 772 121 804 117 789 b 165 721 125 754 147 728 b 224 732 179 715 206 721 z "},"¸":{"ha":340,"x_min":0,"x_max":0,"o":"m -53 -190 b -92 -260 -89 -211 -96 -233 b -26 -301 -89 -278 -67 -299 b 201 -181 83 -310 167 -272 b 142 22 233 -99 207 -25 l 35 22 b 67 -133 69 -32 97 -92 b -53 -190 36 -175 -3 -161 z "},"À":{"ha":753,"x_min":0,"x_max":0,"o":"m 293 649 b 140 439 260 601 214 551 b 76 336 117 403 94 368 b 38 329 60 333 46 332 b -15 242 3 317 -18 263 b 13 211 -12 228 -8 211 b 47 -1 -36 90 -25 19 b 254 118 118 -22 254 68 b 222 203 256 174 204 160 b 233 229 225 210 229 219 b 372 232 279 231 328 232 b 425 272 389 232 408 247 b 568 -14 426 71 472 -14 b 708 176 633 -14 742 133 b 635 244 676 217 631 176 b 651 472 639 300 646 361 b 569 885 665 743 635 885 b 289 738 471 885 290 789 b 293 649 288 679 340 714 z m 304 354 b 444 575 349 428 400 501 b 426 350 435 499 431 425 b 414 353 422 351 418 353 b 304 354 397 356 354 356 z m 521 913 b 574 901 533 901 557 896 b 631 942 594 908 618 924 b 635 986 642 958 644 974 l 479 1188 b 363 1157 458 1217 408 1204 b 347 1069 338 1131 328 1088 z "},"Á":{"ha":753,"x_min":0,"x_max":0,"o":"m 293 649 b 140 439 260 601 214 551 b 76 336 117 403 94 368 b 38 329 60 333 46 332 b -15 242 3 317 -18 263 b 13 211 -12 228 -8 211 b 47 -1 -36 90 -25 19 b 254 118 118 -22 254 68 b 222 203 256 174 204 160 b 233 229 225 210 229 219 b 372 232 279 231 328 232 b 425 272 389 232 408 247 b 568 -14 426 71 472 -14 b 708 176 633 -14 742 133 b 635 244 676 217 631 176 b 651 472 639 300 646 361 b 569 885 665 743 635 885 b 289 738 471 885 290 789 b 293 649 288 679 340 714 z m 304 354 b 444 575 349 428 400 501 b 426 350 435 499 431 425 b 414 353 422 351 418 353 b 304 354 397 356 354 356 z m 404 913 l 644 1069 b 665 1157 672 1088 679 1131 b 536 1208 642 1204 569 1240 l 315 997 b 301 953 301 985 297 969 b 346 901 306 935 328 908 b 404 913 360 896 386 901 z "},"Â":{"ha":753,"x_min":0,"x_max":0,"o":"m 293 649 b 140 439 260 601 214 551 b 76 336 117 403 94 368 b 38 329 60 333 46 332 b -15 242 3 317 -18 263 b 13 211 -12 228 -8 211 b 47 -1 -36 90 -25 19 b 254 118 118 -22 254 68 b 222 203 256 174 204 160 b 233 229 225 210 229 219 b 372 232 279 231 328 232 b 425 272 389 232 408 247 b 568 -14 426 71 472 -14 b 708 176 633 -14 742 133 b 635 244 676 217 631 176 b 651 472 639 300 646 361 b 569 885 665 743 635 885 b 289 738 471 885 290 789 b 293 649 288 679 340 714 z m 304 354 b 444 575 349 428 400 501 b 426 350 435 499 431 425 b 414 353 422 351 418 353 b 304 354 397 356 354 356 z m 574 921 b 628 910 588 910 611 904 b 683 950 649 917 671 932 b 689 994 694 967 696 981 l 571 1174 b 522 1192 564 1185 544 1192 b 465 1174 501 1192 478 1186 l 272 994 b 258 950 257 981 253 967 b 297 910 263 932 279 917 b 354 921 311 904 338 910 l 482 1001 z "},"Ã":{"ha":753,"x_min":0,"x_max":0,"o":"m 293 649 b 140 439 260 601 214 551 b 76 336 117 403 94 368 b 38 329 60 333 46 332 b -15 242 3 317 -18 263 b 13 211 -12 228 -8 211 b 47 -1 -36 90 -25 19 b 254 118 118 -22 254 68 b 222 203 256 174 204 160 b 233 229 225 210 229 219 b 372 232 279 231 328 232 b 425 272 389 232 408 247 b 568 -14 426 71 472 -14 b 708 176 633 -14 742 133 b 635 244 676 217 631 176 b 651 472 639 300 646 361 b 569 885 665 743 635 885 b 289 738 471 885 290 789 b 293 649 288 679 340 714 z m 304 354 b 444 575 349 428 400 501 b 426 350 435 499 431 425 b 414 353 422 351 418 353 b 304 354 397 356 354 356 z m 314 1050 b 293 982 294 1028 288 1001 b 347 961 299 963 328 953 b 449 971 393 981 418 996 b 663 1014 510 919 588 931 b 683 1082 682 1036 689 1063 b 628 1103 678 1101 647 1113 b 518 1103 564 1071 556 1072 b 314 1050 464 1147 383 1126 z "},"Ä":{"ha":753,"x_min":0,"x_max":0,"o":"m 293 649 b 140 439 260 601 214 551 b 76 336 117 403 94 368 b 38 329 60 333 46 332 b -15 242 3 317 -18 263 b 13 211 -12 228 -8 211 b 47 -1 -36 90 -25 19 b 254 118 118 -22 254 68 b 222 203 256 174 204 160 b 233 229 225 210 229 219 b 372 232 279 231 328 232 b 425 272 389 232 408 247 b 568 -14 426 71 472 -14 b 708 176 633 -14 742 133 b 635 244 676 217 631 176 b 651 472 639 300 646 361 b 569 885 665 743 635 885 b 289 738 471 885 290 789 b 293 649 288 679 340 714 z m 304 354 b 444 575 349 428 400 501 b 426 350 435 499 431 425 b 414 353 422 351 418 353 b 304 354 397 356 354 356 z m 361 950 b 478 1064 404 958 465 1007 b 408 1146 489 1114 451 1156 b 293 1029 361 1136 303 1088 b 361 950 286 982 324 942 z m 571 950 b 689 1064 615 960 676 1007 b 619 1146 700 1114 663 1156 b 504 1029 571 1136 514 1088 b 571 950 497 982 533 943 z "},"Å":{"ha":753,"x_min":0,"x_max":0,"o":"m 293 649 b 140 439 260 601 214 551 b 76 336 117 403 94 368 b 38 329 60 333 46 332 b -15 242 3 317 -18 263 b 13 211 -12 228 -8 211 b 47 -1 -36 90 -25 19 b 254 118 118 -22 254 68 b 222 203 256 174 204 160 b 233 229 225 210 229 219 b 372 232 279 231 328 232 b 425 272 389 232 408 247 b 568 -14 426 71 472 -14 b 708 176 633 -14 742 133 b 635 244 676 217 631 176 b 651 472 639 300 646 361 b 569 885 665 743 635 885 b 289 738 471 885 290 789 b 293 649 288 679 340 714 z m 304 354 b 444 575 349 428 400 501 b 426 350 435 499 431 425 b 414 353 422 351 418 353 b 304 354 397 356 354 356 z m 321 1071 b 444 897 286 967 354 897 b 671 1071 533 897 635 967 b 550 1244 706 1175 639 1244 b 321 1071 460 1244 357 1175 z m 456 1082 b 539 1143 485 1128 524 1147 b 538 1060 556 1138 563 1101 b 453 999 508 1015 472 994 b 456 1082 435 1003 431 1040 z "},"Ç":{"ha":681,"x_min":0,"x_max":0,"o":"m 38 438 b 222 -10 -11 206 83 22 b 236 -133 247 -54 261 -100 b 117 -190 206 -175 167 -161 b 78 -260 81 -211 74 -233 b 143 -301 81 -278 103 -299 b 371 -181 253 -310 336 -272 b 333 3 399 -108 382 -44 b 592 182 419 38 542 118 b 613 261 613 210 622 247 b 515 267 600 281 553 275 b 224 217 464 256 251 204 b 265 474 193 231 215 375 b 476 692 319 579 428 693 b 479 549 510 690 479 596 b 594 426 478 451 522 415 b 704 614 665 438 704 501 b 453 889 706 763 586 889 b 38 438 289 889 86 669 z "},"È":{"ha":638,"x_min":0,"x_max":0,"o":"m 144 629 b 107 508 133 594 121 558 b 86 504 99 507 90 506 b 29 414 51 493 28 431 b 71 382 33 390 47 382 b 140 -11 -3 92 18 -25 b 474 8 226 -10 443 -11 b 565 132 511 31 536 65 b 540 182 579 163 569 176 b 294 156 507 189 401 164 b 242 226 246 153 229 183 b 286 381 253 268 267 311 b 482 389 376 382 464 385 b 553 464 504 394 533 431 b 528 514 569 493 557 508 b 322 518 504 518 417 519 b 361 714 342 592 354 658 b 604 722 450 714 579 717 b 681 825 626 728 661 792 b 656 875 699 854 685 869 b 350 872 617 883 438 881 b 319 888 342 882 332 888 b 82 694 214 893 64 739 b 144 629 103 644 167 701 z m 463 913 b 515 901 475 901 499 896 b 572 942 536 908 560 924 b 576 986 583 958 586 974 l 421 1188 b 304 1157 400 1217 350 1204 b 289 1069 279 1131 269 1088 z "},"É":{"ha":638,"x_min":0,"x_max":0,"o":"m 144 629 b 107 508 133 594 121 558 b 86 504 99 507 90 506 b 29 414 51 493 28 431 b 71 382 33 390 47 382 b 140 -11 -3 92 18 -25 b 474 8 226 -10 443 -11 b 565 132 511 31 536 65 b 540 182 579 163 569 176 b 294 156 507 189 401 164 b 242 226 246 153 229 183 b 286 381 253 268 267 311 b 482 389 376 382 464 385 b 553 464 504 394 533 431 b 528 514 569 493 557 508 b 322 518 504 518 417 519 b 361 714 342 592 354 658 b 604 722 450 714 579 717 b 681 825 626 728 661 792 b 656 875 699 854 685 869 b 350 872 617 883 438 881 b 319 888 342 882 332 888 b 82 694 214 893 64 739 b 144 629 103 644 167 701 z m 347 913 l 588 1069 b 608 1157 615 1088 622 1131 b 479 1208 585 1204 513 1240 l 258 997 b 244 953 244 985 240 969 b 289 901 249 935 271 908 b 347 913 303 896 329 901 z "},"Ê":{"ha":638,"x_min":0,"x_max":0,"o":"m 144 629 b 107 508 133 594 121 558 b 86 504 99 507 90 506 b 29 414 51 493 28 431 b 71 382 33 390 47 382 b 140 -11 -3 92 18 -25 b 474 8 226 -10 443 -11 b 565 132 511 31 536 65 b 540 182 579 163 569 176 b 294 156 507 189 401 164 b 242 226 246 153 229 183 b 286 381 253 268 267 311 b 482 389 376 382 464 385 b 553 464 504 394 533 431 b 528 514 569 493 557 508 b 322 518 504 518 417 519 b 361 714 342 592 354 658 b 604 722 450 714 579 717 b 681 825 626 728 661 792 b 656 875 699 854 685 869 b 350 872 617 883 438 881 b 319 888 342 882 332 888 b 82 694 214 893 64 739 b 144 629 103 644 167 701 z m 517 921 b 571 910 531 910 554 904 b 626 950 592 917 614 932 b 632 994 638 967 639 981 l 514 1174 b 465 1192 507 1185 488 1192 b 408 1174 444 1192 421 1186 l 215 994 b 201 950 200 981 196 967 b 240 910 206 932 222 917 b 297 921 254 904 281 910 l 425 1001 z "},"Ë":{"ha":638,"x_min":0,"x_max":0,"o":"m 144 629 b 107 508 133 594 121 558 b 86 504 99 507 90 506 b 29 414 51 493 28 431 b 71 382 33 390 47 382 b 140 -11 -3 92 18 -25 b 474 8 226 -10 443 -11 b 565 132 511 31 536 65 b 540 182 579 163 569 176 b 294 156 507 189 401 164 b 242 226 246 153 229 183 b 286 381 253 268 267 311 b 482 389 376 382 464 385 b 553 464 504 394 533 431 b 528 514 569 493 557 508 b 322 518 504 518 417 519 b 361 714 342 592 354 658 b 604 722 450 714 579 717 b 681 825 626 728 661 792 b 656 875 699 854 685 869 b 350 872 617 883 438 881 b 319 888 342 882 332 888 b 82 694 214 893 64 739 b 144 629 103 644 167 701 z m 304 950 b 421 1064 347 958 408 1007 b 351 1146 432 1114 394 1156 b 236 1029 304 1136 246 1088 b 304 950 229 982 267 942 z m 514 950 b 632 1064 558 960 619 1007 b 563 1146 643 1114 606 1156 b 447 1029 514 1136 457 1088 b 514 950 440 982 476 943 z "},"Ì":{"ha":360,"x_min":0,"x_max":0,"o":"m 144 629 b 82 428 128 576 108 519 b 139 -17 18 186 -1 -26 b 303 160 218 -11 322 117 b 240 221 283 207 219 151 b 303 439 256 276 276 339 b 319 888 372 699 397 883 b 82 694 214 893 64 739 b 144 629 103 644 167 701 z m 324 913 b 376 901 336 901 360 896 b 433 942 397 908 421 924 b 438 986 444 958 447 974 l 282 1188 b 165 1157 261 1217 211 1204 b 150 1069 140 1131 131 1088 z "},"Í":{"ha":360,"x_min":0,"x_max":0,"o":"m 144 629 b 82 428 128 576 108 519 b 139 -17 18 186 -1 -26 b 303 160 218 -11 322 117 b 240 221 283 207 219 151 b 303 439 256 276 276 339 b 319 888 372 699 397 883 b 82 694 214 893 64 739 b 144 629 103 644 167 701 z m 208 913 l 449 1069 b 469 1157 476 1088 483 1131 b 340 1208 446 1204 374 1240 l 119 997 b 106 953 106 985 101 969 b 150 901 110 935 132 908 b 208 913 164 896 190 901 z "},"Î":{"ha":360,"x_min":0,"x_max":0,"o":"m 144 629 b 82 428 128 576 108 519 b 139 -17 18 186 -1 -26 b 303 160 218 -11 322 117 b 240 221 283 207 219 151 b 303 439 256 276 276 339 b 319 888 372 699 397 883 b 82 694 214 893 64 739 b 144 629 103 644 167 701 z m 378 921 b 432 910 392 910 415 904 b 488 950 453 917 475 932 b 493 994 499 967 500 981 l 375 1174 b 326 1192 368 1185 349 1192 b 269 1174 306 1192 282 1186 l 76 994 b 63 950 61 981 57 967 b 101 910 67 932 83 917 b 158 921 115 904 142 910 l 286 1001 z "},"Ï":{"ha":360,"x_min":0,"x_max":0,"o":"m 144 629 b 82 428 128 576 108 519 b 139 -17 18 186 -1 -26 b 303 160 218 -11 322 117 b 240 221 283 207 219 151 b 303 439 256 276 276 339 b 319 888 372 699 397 883 b 82 694 214 893 64 739 b 144 629 103 644 167 701 z m 165 950 b 282 1064 208 958 269 1007 b 213 1146 293 1114 256 1156 b 97 1029 165 1136 107 1088 b 165 950 90 982 128 942 z m 375 950 b 493 1064 419 960 481 1007 b 424 1146 504 1114 467 1156 b 308 1029 375 1136 318 1088 b 375 950 301 982 338 943 z "},"Ñ":{"ha":840,"x_min":0,"x_max":0,"o":"m 144 629 b 82 428 128 576 108 519 b 139 -17 18 186 -1 -26 b 303 160 218 -11 322 117 b 240 221 283 207 219 151 b 308 488 265 307 289 401 b 518 19 357 307 435 119 b 599 -17 535 -6 561 -19 b 763 160 678 -11 782 117 b 700 221 743 207 679 151 b 763 439 715 276 736 339 b 779 888 832 699 857 883 b 542 694 674 893 524 739 b 604 629 563 644 626 701 b 560 436 589 581 572 515 b 354 867 503 628 418 786 b 319 888 344 879 335 886 b 82 694 214 893 64 739 b 144 629 103 644 167 701 z m 358 1050 b 338 982 339 1028 332 1001 b 392 961 343 963 372 953 b 493 971 438 981 463 996 b 707 1014 554 919 632 931 b 728 1082 726 1036 733 1063 b 672 1103 722 1101 692 1113 b 563 1103 608 1071 600 1072 b 358 1050 508 1147 428 1126 z "},"Ò":{"ha":768,"x_min":0,"x_max":0,"o":"m 35 431 b 297 -14 -19 174 144 -14 b 749 431 451 -14 694 174 b 489 889 803 688 643 889 b 35 431 336 889 89 688 z m 271 489 b 546 667 358 631 506 682 b 510 381 582 654 574 485 b 236 201 425 239 276 188 b 271 489 200 215 207 383 z m 514 913 b 567 901 526 901 550 896 b 624 942 588 908 611 924 b 628 986 635 958 638 974 l 472 1188 b 356 1157 451 1217 401 1204 b 340 1069 331 1131 321 1088 z "},"Ó":{"ha":768,"x_min":0,"x_max":0,"o":"m 35 431 b 297 -14 -19 174 144 -14 b 749 431 451 -14 694 174 b 489 889 803 688 643 889 b 35 431 336 889 89 688 z m 271 489 b 546 667 358 631 506 682 b 510 381 582 654 574 485 b 236 201 425 239 276 188 b 271 489 200 215 207 383 z m 397 913 l 638 1069 b 658 1157 665 1088 672 1131 b 529 1208 635 1204 563 1240 l 308 997 b 294 953 294 985 290 969 b 339 901 299 935 321 908 b 397 913 353 896 379 901 z "},"Ô":{"ha":768,"x_min":0,"x_max":0,"o":"m 35 431 b 297 -14 -19 174 144 -14 b 749 431 451 -14 694 174 b 489 889 803 688 643 889 b 35 431 336 889 89 688 z m 271 489 b 546 667 358 631 506 682 b 510 381 582 654 574 485 b 236 201 425 239 276 188 b 271 489 200 215 207 383 z m 567 921 b 621 910 581 910 604 904 b 676 950 642 917 664 932 b 682 994 688 967 689 981 l 564 1174 b 515 1192 557 1185 538 1192 b 458 1174 494 1192 471 1186 l 265 994 b 251 950 250 981 246 967 b 290 910 256 932 272 917 b 347 921 304 904 331 910 l 475 1001 z "},"Õ":{"ha":768,"x_min":0,"x_max":0,"o":"m 35 431 b 297 -14 -19 174 144 -14 b 749 431 451 -14 694 174 b 489 889 803 688 643 889 b 35 431 336 889 89 688 z m 271 489 b 546 667 358 631 506 682 b 510 381 582 654 574 485 b 236 201 425 239 276 188 b 271 489 200 215 207 383 z m 307 1050 b 286 982 288 1028 281 1001 b 340 961 292 963 321 953 b 442 971 386 981 411 996 b 656 1014 503 919 581 931 b 676 1082 675 1036 682 1063 b 621 1103 671 1101 640 1113 b 511 1103 557 1071 549 1072 b 307 1050 457 1147 376 1126 z "},"Ö":{"ha":768,"x_min":0,"x_max":0,"o":"m 35 431 b 297 -14 -19 174 144 -14 b 749 431 451 -14 694 174 b 489 889 803 688 643 889 b 35 431 336 889 89 688 z m 271 489 b 546 667 358 631 506 682 b 510 381 582 654 574 485 b 236 201 425 239 276 188 b 271 489 200 215 207 383 z m 354 950 b 471 1064 397 958 458 1007 b 401 1146 482 1114 444 1156 b 286 1029 354 1136 296 1088 b 354 950 279 982 317 942 z m 564 950 b 682 1064 608 960 669 1007 b 613 1146 693 1114 656 1156 b 497 1029 564 1136 507 1088 b 564 950 490 982 526 943 z "},"Š":{"ha":696,"x_min":0,"x_max":0,"o":"m 289 307 b 379 178 388 293 429 243 b 281 140 354 146 317 136 b 204 200 244 146 213 168 b 115 264 194 239 165 269 b 3 133 50 257 14 206 b 231 -14 -10 44 79 -14 b 631 282 419 -14 613 124 b 322 485 651 457 385 464 b 336 599 303 492 296 528 b 493 738 389 694 460 738 b 515 621 522 738 517 654 b 615 503 513 542 551 493 b 719 665 672 511 717 564 b 490 890 722 803 626 890 b 92 558 328 890 140 735 b 289 307 49 397 121 331 z m 476 1108 l 383 1189 b 331 1200 371 1200 347 1206 b 275 1160 310 1193 288 1178 b 269 1115 263 1143 261 1129 l 388 936 b 436 918 394 924 415 918 b 493 936 458 918 481 925 l 686 1115 b 700 1160 700 1129 704 1143 b 661 1200 696 1178 679 1193 b 603 1189 647 1206 621 1200 z "},"Ù":{"ha":790,"x_min":0,"x_max":0,"o":"m 506 294 b 315 201 468 232 361 185 b 290 375 274 217 264 281 b 319 888 389 717 381 885 b 82 694 213 892 64 739 b 144 629 103 644 167 701 b 61 325 128 576 81 417 b 307 -14 22 146 139 -14 b 764 444 506 -14 694 176 b 761 888 833 713 832 883 b 536 694 656 893 518 739 b 599 629 557 644 621 701 b 506 294 582 576 531 386 z m 539 913 b 592 901 551 901 575 896 b 649 942 613 908 636 924 b 653 986 660 958 663 974 l 497 1188 b 381 1157 476 1217 426 1204 b 365 1069 356 1131 346 1088 z "},"Ú":{"ha":790,"x_min":0,"x_max":0,"o":"m 506 294 b 315 201 468 232 361 185 b 290 375 274 217 264 281 b 319 888 389 717 381 885 b 82 694 213 892 64 739 b 144 629 103 644 167 701 b 61 325 128 576 81 417 b 307 -14 22 146 139 -14 b 764 444 506 -14 694 176 b 761 888 833 713 832 883 b 536 694 656 893 518 739 b 599 629 557 644 621 701 b 506 294 582 576 531 386 z m 424 913 l 664 1069 b 685 1157 692 1088 699 1131 b 556 1208 661 1204 589 1240 l 335 997 b 321 953 321 985 317 969 b 365 901 325 935 347 908 b 424 913 379 896 406 901 z "},"Û":{"ha":790,"x_min":0,"x_max":0,"o":"m 506 294 b 315 201 468 232 361 185 b 290 375 274 217 264 281 b 319 888 389 717 381 885 b 82 694 213 892 64 739 b 144 629 103 644 167 701 b 61 325 128 576 81 417 b 307 -14 22 146 139 -14 b 764 444 506 -14 694 176 b 761 888 833 713 832 883 b 536 694 656 893 518 739 b 599 629 557 644 621 701 b 506 294 582 576 531 386 z m 593 921 b 647 910 607 910 631 904 b 703 950 668 917 690 932 b 708 994 714 967 715 981 l 590 1174 b 542 1192 583 1185 564 1192 b 485 1174 521 1192 497 1186 l 292 994 b 278 950 276 981 272 967 b 317 910 282 932 299 917 b 374 921 331 904 357 910 l 501 1001 z "},"Ü":{"ha":790,"x_min":0,"x_max":0,"o":"m 506 294 b 315 201 468 232 361 185 b 290 375 274 217 264 281 b 319 888 389 717 381 885 b 82 694 213 892 64 739 b 144 629 103 644 167 701 b 61 325 128 576 81 417 b 307 -14 22 146 139 -14 b 764 444 506 -14 694 176 b 761 888 833 713 832 883 b 536 694 656 893 518 739 b 599 629 557 644 621 701 b 506 294 582 576 531 386 z m 381 950 b 497 1064 424 958 485 1007 b 428 1146 508 1114 471 1156 b 313 1029 381 1136 322 1088 b 381 950 306 982 343 942 z m 590 950 b 708 1064 635 960 696 1007 b 639 1146 719 1114 682 1156 b 524 1029 590 1136 533 1088 b 590 950 517 982 553 943 z "},"Ÿ":{"ha":757,"x_min":0,"x_max":0,"o":"m 565 640 b 414 450 547 528 485 450 b 375 674 340 450 325 526 b 314 888 418 799 403 879 b 83 694 207 897 63 739 b 149 632 106 647 167 700 b 246 253 92 422 139 293 b 335 -17 172 81 225 -25 b 499 160 407 -11 521 111 b 436 221 479 207 415 151 b 439 229 436 224 439 226 l 443 246 b 446 254 443 249 444 251 b 786 668 619 308 751 463 b 714 888 811 813 789 881 b 496 694 607 897 474 736 b 565 640 519 650 574 692 z m 364 950 b 481 1064 407 958 468 1007 b 411 1146 492 1114 454 1156 b 296 1029 364 1136 306 1088 b 364 950 289 982 326 942 z m 574 950 b 692 1064 618 960 679 1007 b 622 1146 703 1114 665 1156 b 507 1029 574 1136 517 1088 b 574 950 500 982 536 943 z "},"Ý":{"ha":757,"x_min":0,"x_max":0,"o":"m 565 640 b 414 450 547 528 485 450 b 375 674 340 450 325 526 b 314 888 418 799 403 879 b 83 694 207 897 63 739 b 149 632 106 647 167 700 b 246 253 92 422 139 293 b 335 -17 172 81 225 -25 b 499 160 407 -11 521 111 b 436 221 479 207 415 151 b 439 229 436 224 439 226 l 443 246 b 446 254 443 249 444 251 b 786 668 619 308 751 463 b 714 888 811 813 789 881 b 496 694 607 897 474 736 b 565 640 519 650 574 692 z m 647 1069 b 668 1157 675 1088 682 1131 b 539 1208 644 1204 572 1240 l 318 997 b 304 953 304 985 300 969 b 349 901 308 935 331 908 b 407 913 363 896 389 901 z "},"Ž":{"ha":719,"x_min":0,"x_max":0,"o":"m 415 739 b 519 753 442 747 481 751 b 6 136 406 600 82 303 b 88 -10 -32 56 13 -4 b 142 -6 103 -11 124 -10 b 458 0 219 -12 379 -18 b 660 182 551 21 632 93 b 590 358 690 281 654 367 b 369 156 507 347 447 203 b 246 126 342 139 297 131 b 261 154 247 132 250 140 b 710 675 357 293 606 550 b 696 888 792 772 772 879 b 614 878 668 890 640 886 b 181 817 363 892 243 874 b 150 506 83 726 57 500 b 415 739 232 510 349 717 z m 614 1189 l 488 1108 l 394 1189 b 342 1200 382 1200 358 1206 b 286 1160 321 1193 299 1178 b 281 1115 274 1143 272 1129 l 399 936 b 447 918 406 924 426 918 b 504 936 469 918 492 925 l 697 1115 b 711 1160 711 1129 715 1143 b 672 1200 707 1178 690 1193 b 614 1189 658 1206 632 1200 z "},"à":{"ha":629,"x_min":0,"x_max":0,"o":"m 107 513 b 67 293 33 410 17 326 b 247 381 110 264 185 300 b 403 565 303 453 371 565 b 385 400 428 565 414 524 b -1 100 189 311 33 192 b 94 -14 -26 33 14 -14 b 332 92 163 -14 269 33 b 406 -14 321 29 351 -14 b 574 153 465 -14 590 110 b 538 217 564 182 528 167 l 589 460 b 450 708 622 611 567 708 b 107 513 339 708 196 635 z m 235 171 b 279 233 225 188 240 211 b 353 254 310 251 347 265 b 306 185 358 242 335 208 b 235 171 272 158 246 153 z m 458 732 b 511 721 471 721 494 715 b 568 761 532 728 556 743 b 572 806 579 778 582 793 l 417 1007 b 300 976 396 1036 346 1024 b 285 889 275 950 265 907 z "},"á":{"ha":629,"x_min":0,"x_max":0,"o":"m 107 513 b 67 293 33 410 17 326 b 247 381 110 264 185 300 b 403 565 303 453 371 565 b 385 400 428 565 414 524 b -1 100 189 311 33 192 b 94 -14 -26 33 14 -14 b 332 92 163 -14 269 33 b 406 -14 321 29 351 -14 b 574 153 465 -14 590 110 b 538 217 564 182 528 167 l 589 460 b 450 708 622 611 567 708 b 107 513 339 708 196 635 z m 235 171 b 279 233 225 188 240 211 b 353 254 310 251 347 265 b 306 185 358 242 335 208 b 235 171 272 158 246 153 z m 583 889 b 604 976 611 907 618 950 b 475 1028 581 1024 508 1060 l 254 817 b 240 772 240 804 236 789 b 285 721 244 754 267 728 b 343 732 299 715 325 721 z "},"â":{"ha":629,"x_min":0,"x_max":0,"o":"m 107 513 b 67 293 33 410 17 326 b 247 381 110 264 185 300 b 403 565 303 453 371 565 b 385 400 428 565 414 524 b -1 100 189 311 33 192 b 94 -14 -26 33 14 -14 b 332 92 163 -14 269 33 b 406 -14 321 29 351 -14 b 574 153 465 -14 590 110 b 538 217 564 182 528 167 l 589 460 b 450 708 622 611 567 708 b 107 513 339 708 196 635 z m 235 171 b 279 233 225 188 240 211 b 353 254 310 251 347 265 b 306 185 358 242 335 208 b 235 171 272 158 246 153 z m 513 740 b 567 729 526 729 550 724 b 622 769 588 736 610 751 b 628 814 633 786 635 800 l 510 993 b 461 1011 503 1004 483 1011 b 404 993 440 1011 417 1006 l 211 814 b 197 769 196 800 192 786 b 236 729 201 751 218 736 b 293 740 250 724 276 729 l 421 821 z "},"ã":{"ha":629,"x_min":0,"x_max":0,"o":"m 107 513 b 67 293 33 410 17 326 b 247 381 110 264 185 300 b 403 565 303 453 371 565 b 385 400 428 565 414 524 b -1 100 189 311 33 192 b 94 -14 -26 33 14 -14 b 332 92 163 -14 269 33 b 406 -14 321 29 351 -14 b 574 153 465 -14 590 110 b 538 217 564 182 528 167 l 589 460 b 450 708 622 611 567 708 b 107 513 339 708 196 635 z m 235 171 b 279 233 225 188 240 211 b 353 254 310 251 347 265 b 306 185 358 242 335 208 b 235 171 272 158 246 153 z m 253 869 b 232 801 233 847 226 821 b 286 781 238 782 267 772 b 388 790 332 800 357 815 b 601 833 449 739 526 750 b 622 901 621 856 628 882 b 567 922 617 921 586 932 b 457 922 503 890 494 892 b 253 869 403 967 322 946 z "},"ä":{"ha":629,"x_min":0,"x_max":0,"o":"m 107 513 b 67 293 33 410 17 326 b 247 381 110 264 185 300 b 403 565 303 453 371 565 b 385 400 428 565 414 524 b -1 100 189 311 33 192 b 94 -14 -26 33 14 -14 b 332 92 163 -14 269 33 b 406 -14 321 29 351 -14 b 574 153 465 -14 590 110 b 538 217 564 182 528 167 l 589 460 b 450 708 622 611 567 708 b 107 513 339 708 196 635 z m 235 171 b 279 233 225 188 240 211 b 353 254 310 251 347 265 b 306 185 358 242 335 208 b 235 171 272 158 246 153 z m 300 769 b 417 883 343 778 404 826 b 347 965 428 933 390 975 b 232 849 300 956 242 907 b 300 769 225 801 263 761 z m 510 769 b 628 883 554 779 615 826 b 558 965 639 933 601 975 b 443 849 510 956 453 907 b 510 769 436 801 472 763 z "},"å":{"ha":629,"x_min":0,"x_max":0,"o":"m 107 513 b 67 293 33 410 17 326 b 247 381 110 264 185 300 b 403 565 303 453 371 565 b 385 400 428 565 414 524 b -1 100 189 311 33 192 b 94 -14 -26 33 14 -14 b 332 92 163 -14 269 33 b 406 -14 321 29 351 -14 b 574 153 465 -14 590 110 b 538 217 564 182 528 167 l 589 460 b 450 708 622 611 567 708 b 107 513 339 708 196 635 z m 235 171 b 279 233 225 188 240 211 b 353 254 310 251 347 265 b 306 185 358 242 335 208 b 235 171 272 158 246 153 z m 258 890 b 382 717 224 786 292 717 b 608 890 471 717 572 786 b 488 1064 643 994 576 1064 b 258 890 397 1064 294 994 z m 393 901 b 476 963 422 947 461 967 b 475 879 493 957 500 921 b 390 818 446 835 410 814 b 393 901 372 822 368 860 z "},"ç":{"ha":583,"x_min":0,"x_max":0,"o":"m 32 347 b 172 -7 -6 169 61 26 b 188 -133 197 -53 213 -99 b 68 -190 157 -175 118 -161 b 29 -260 32 -211 25 -233 b 94 -301 32 -278 54 -299 b 322 -181 204 -310 288 -272 b 285 3 350 -108 333 -44 b 507 174 358 36 458 110 b 525 244 528 201 535 231 b 426 242 513 264 465 253 b 200 197 375 226 228 185 b 242 378 178 207 200 310 b 400 497 297 469 375 507 b 396 403 414 492 396 450 b 488 318 394 347 415 307 b 576 433 532 325 571 383 b 376 708 596 579 500 708 b 32 347 236 708 72 536 z "},"è":{"ha":589,"x_min":0,"x_max":0,"o":"m 32 347 b 224 -14 -10 151 78 -14 b 507 174 286 -14 442 89 b 525 244 528 201 535 231 b 426 242 513 264 465 253 b 200 197 375 226 228 185 b 194 253 190 201 189 224 b 583 440 383 271 560 351 b 376 708 619 571 514 708 b 32 347 236 708 72 536 z m 267 379 b 254 397 249 374 243 382 b 403 526 304 471 376 535 b 388 438 421 521 410 465 b 267 379 371 417 325 396 z m 439 732 b 492 721 451 721 475 715 b 549 761 513 728 536 743 b 553 806 560 778 563 793 l 397 1007 b 281 976 376 1036 326 1024 b 265 889 256 950 246 907 z "},"é":{"ha":589,"x_min":0,"x_max":0,"o":"m 32 347 b 224 -14 -10 151 78 -14 b 507 174 286 -14 442 89 b 525 244 528 201 535 231 b 426 242 513 264 465 253 b 200 197 375 226 228 185 b 194 253 190 201 189 224 b 583 440 383 271 560 351 b 376 708 619 571 514 708 b 32 347 236 708 72 536 z m 267 379 b 254 397 249 374 243 382 b 403 526 304 471 376 535 b 388 438 421 521 410 465 b 267 379 371 417 325 396 z m 322 732 l 563 889 b 583 976 590 907 597 950 b 454 1028 560 1024 488 1060 l 233 817 b 219 772 219 804 215 789 b 264 721 224 754 246 728 b 322 732 278 715 304 721 z "},"ê":{"ha":589,"x_min":0,"x_max":0,"o":"m 32 347 b 224 -14 -10 151 78 -14 b 507 174 286 -14 442 89 b 525 244 528 201 535 231 b 426 242 513 264 465 253 b 200 197 375 226 228 185 b 194 253 190 201 189 224 b 583 440 383 271 560 351 b 376 708 619 571 514 708 b 32 347 236 708 72 536 z m 267 379 b 254 397 249 374 243 382 b 403 526 304 471 376 535 b 388 438 421 521 410 465 b 267 379 371 417 325 396 z m 492 740 b 546 729 506 729 529 724 b 601 769 567 736 589 751 b 607 814 613 786 614 800 l 489 993 b 440 1011 482 1004 463 1011 b 383 993 419 1011 396 1006 l 190 814 b 176 769 175 800 171 786 b 215 729 181 751 197 736 b 272 740 229 724 256 729 l 400 821 z "},"ë":{"ha":589,"x_min":0,"x_max":0,"o":"m 32 347 b 224 -14 -10 151 78 -14 b 507 174 286 -14 442 89 b 525 244 528 201 535 231 b 426 242 513 264 465 253 b 200 197 375 226 228 185 b 194 253 190 201 189 224 b 583 440 383 271 560 351 b 376 708 619 571 514 708 b 32 347 236 708 72 536 z m 267 379 b 254 397 249 374 243 382 b 403 526 304 471 376 535 b 388 438 421 521 410 465 b 267 379 371 417 325 396 z m 279 769 b 396 883 322 778 383 826 b 326 965 407 933 369 975 b 211 849 279 956 221 907 b 279 769 204 801 242 761 z m 489 769 b 607 883 533 779 594 826 b 538 965 618 933 581 975 b 422 849 489 956 432 907 b 489 769 415 801 451 763 z "},"ì":{"ha":339,"x_min":0,"x_max":0,"o":"m 107 450 b 54 292 90 397 74 357 b 139 -17 6 122 -1 -24 b 289 125 218 -12 308 90 b 224 174 267 163 206 118 b 279 358 236 218 254 268 b 281 708 335 556 360 704 b 44 515 175 714 26 560 b 107 450 64 465 129 522 z m 314 732 b 367 721 326 721 350 715 b 424 761 388 728 411 743 b 428 806 435 778 438 793 l 272 1007 b 156 976 251 1036 201 1024 b 140 889 131 950 121 907 z "},"í":{"ha":339,"x_min":0,"x_max":0,"o":"m 107 450 b 54 292 90 397 74 357 b 139 -17 6 122 -1 -24 b 289 125 218 -12 308 90 b 224 174 267 163 206 118 b 279 358 236 218 254 268 b 281 708 335 556 360 704 b 44 515 175 714 26 560 b 107 450 64 465 129 522 z m 197 732 l 438 889 b 458 976 465 907 472 950 b 329 1028 435 1024 363 1060 l 108 817 b 94 772 94 804 90 789 b 139 721 99 754 121 728 b 197 732 153 715 179 721 z "},"î":{"ha":339,"x_min":0,"x_max":0,"o":"m 107 450 b 54 292 90 397 74 357 b 139 -17 6 122 -1 -24 b 289 125 218 -12 308 90 b 224 174 267 163 206 118 b 279 358 236 218 254 268 b 281 708 335 556 360 704 b 44 515 175 714 26 560 b 107 450 64 465 129 522 z m 367 740 b 421 729 381 729 404 724 b 476 769 442 736 464 751 b 482 814 488 786 489 800 l 364 993 b 315 1011 357 1004 338 1011 b 258 993 294 1011 271 1006 l 65 814 b 51 769 50 800 46 786 b 90 729 56 751 72 736 b 147 740 104 724 131 729 l 275 821 z "},"ï":{"ha":339,"x_min":0,"x_max":0,"o":"m 107 450 b 54 292 90 397 74 357 b 139 -17 6 122 -1 -24 b 289 125 218 -12 308 90 b 224 174 267 163 206 118 b 279 358 236 218 254 268 b 281 708 335 556 360 704 b 44 515 175 714 26 560 b 107 450 64 465 129 522 z m 154 769 b 271 883 197 778 258 826 b 201 965 282 933 244 975 b 86 849 154 956 96 907 b 154 769 79 801 117 761 z m 364 769 b 482 883 408 779 469 826 b 413 965 493 933 456 975 b 297 849 364 956 307 907 b 364 769 290 801 326 763 z "},"ñ":{"ha":718,"x_min":0,"x_max":0,"o":"m 599 164 b 622 708 635 282 803 708 b 296 421 521 708 399 582 b 281 708 340 586 351 704 b 44 515 175 714 26 560 b 107 450 64 465 129 522 b 54 292 90 397 74 357 b 140 -14 6 122 0 -21 b 289 125 219 -10 308 90 b 232 143 276 147 247 140 b 436 407 319 300 371 407 b 399 203 479 407 424 267 b 501 -14 340 50 386 -21 b 665 115 601 -8 690 72 b 599 164 642 153 582 108 z m 297 869 b 276 801 278 847 271 821 b 331 781 282 782 311 772 b 432 790 376 800 401 815 b 646 833 493 739 571 750 b 667 901 665 856 672 882 b 611 922 661 921 631 932 b 501 922 547 890 539 892 b 297 869 447 967 367 946 z "},"ò":{"ha":613,"x_min":0,"x_max":0,"o":"m 32 347 b 235 -14 -12 139 110 -14 b 589 347 360 -14 544 139 b 388 708 633 556 513 708 b 32 347 263 708 76 556 z m 242 378 b 411 497 297 469 386 507 b 379 317 435 489 421 385 b 211 197 324 225 238 188 b 242 378 188 206 200 310 z m 450 732 b 503 721 463 721 486 715 b 560 761 524 728 547 743 b 564 806 571 778 574 793 l 408 1007 b 292 976 388 1036 338 1024 b 276 889 267 950 257 907 z "},"ó":{"ha":613,"x_min":0,"x_max":0,"o":"m 32 347 b 235 -14 -12 139 110 -14 b 589 347 360 -14 544 139 b 388 708 633 556 513 708 b 32 347 263 708 76 556 z m 242 378 b 411 497 297 469 386 507 b 379 317 435 489 421 385 b 211 197 324 225 238 188 b 242 378 188 206 200 310 z m 335 732 l 575 889 b 596 976 603 907 610 950 b 467 1028 572 1024 500 1060 l 246 817 b 232 772 232 804 228 789 b 276 721 236 754 258 728 b 335 732 290 715 317 721 z "},"ô":{"ha":613,"x_min":0,"x_max":0,"o":"m 32 347 b 235 -14 -12 139 110 -14 b 589 347 360 -14 544 139 b 388 708 633 556 513 708 b 32 347 263 708 76 556 z m 242 378 b 411 497 297 469 386 507 b 379 317 435 489 421 385 b 211 197 324 225 238 188 b 242 378 188 206 200 310 z m 504 740 b 558 729 518 729 542 724 b 614 769 579 736 601 751 b 619 814 625 786 626 800 l 501 993 b 453 1011 494 1004 475 1011 b 396 993 432 1011 408 1006 l 203 814 b 189 769 188 800 183 786 b 228 729 193 751 210 736 b 285 740 242 724 268 729 l 413 821 z "},"õ":{"ha":613,"x_min":0,"x_max":0,"o":"m 32 347 b 235 -14 -12 139 110 -14 b 589 347 360 -14 544 139 b 388 708 633 556 513 708 b 32 347 263 708 76 556 z m 242 378 b 411 497 297 469 386 507 b 379 317 435 489 421 385 b 211 197 324 225 238 188 b 242 378 188 206 200 310 z m 244 869 b 224 801 225 847 218 821 b 278 781 229 782 258 772 b 379 790 324 800 349 815 b 593 833 440 739 518 750 b 614 901 613 856 619 882 b 558 922 608 921 578 932 b 449 922 494 890 486 892 b 244 869 394 967 314 946 z "},"ö":{"ha":613,"x_min":0,"x_max":0,"o":"m 32 347 b 235 -14 -12 139 110 -14 b 589 347 360 -14 544 139 b 388 708 633 556 513 708 b 32 347 263 708 76 556 z m 242 378 b 411 497 297 469 386 507 b 379 317 435 489 421 385 b 211 197 324 225 238 188 b 242 378 188 206 200 310 z m 292 769 b 408 883 335 778 396 826 b 339 965 419 933 382 975 b 224 849 292 956 233 907 b 292 769 217 801 254 761 z m 501 769 b 619 883 546 779 607 826 b 550 965 631 933 593 975 b 435 849 501 956 444 907 b 501 769 428 801 464 763 z "},"š":{"ha":599,"x_min":0,"x_max":0,"o":"m 235 238 b 311 153 319 228 344 194 b 214 132 294 131 242 118 b 172 186 190 144 179 163 b 103 229 165 219 149 239 b -10 125 56 219 -3 176 b 192 -14 -19 44 44 -14 b 544 254 368 -14 529 108 b 268 410 561 408 325 389 b 285 479 249 417 257 447 b 417 563 336 538 389 574 b 410 486 431 557 419 535 b 504 389 397 415 431 379 b 608 510 558 396 600 444 b 403 708 624 626 536 708 b 53 440 250 708 93 581 b 235 238 15 308 65 257 z m 428 928 l 335 1008 b 282 1019 322 1019 299 1025 b 226 979 261 1013 239 997 b 221 935 214 963 213 949 l 339 756 b 388 738 346 743 367 738 b 444 756 410 738 432 744 l 638 935 b 651 979 651 949 656 963 b 613 1019 647 997 631 1013 b 554 1008 599 1025 572 1019 z "},"ù":{"ha":722,"x_min":0,"x_max":0,"o":"m 103 450 b 104 -14 49 289 -51 -14 b 428 264 206 -14 326 107 b 524 -14 382 76 415 -19 b 675 139 603 -10 694 104 b 610 188 653 176 592 132 b 665 374 624 232 640 282 b 664 708 721 569 743 704 b 431 529 558 714 413 574 b 474 506 439 506 460 507 b 288 274 397 367 349 274 b 325 478 244 274 300 414 b 281 708 383 628 368 701 b 44 515 175 715 26 560 b 103 450 64 465 126 522 z m 506 732 b 558 721 518 721 542 715 b 615 761 579 728 603 743 b 619 806 626 778 629 793 l 464 1007 b 347 976 443 1036 393 1024 b 332 889 322 950 313 907 z "},"ú":{"ha":722,"x_min":0,"x_max":0,"o":"m 103 450 b 104 -14 49 289 -51 -14 b 428 264 206 -14 326 107 b 524 -14 382 76 415 -19 b 675 139 603 -10 694 104 b 610 188 653 176 592 132 b 665 374 624 232 640 282 b 664 708 721 569 743 704 b 431 529 558 714 413 574 b 474 506 439 506 460 507 b 288 274 397 367 349 274 b 325 478 244 274 300 414 b 281 708 383 628 368 701 b 44 515 175 715 26 560 b 103 450 64 465 126 522 z m 629 889 b 650 976 657 907 664 950 b 521 1028 626 1024 554 1060 l 300 817 b 286 772 286 804 282 789 b 331 721 290 754 313 728 b 389 732 344 715 371 721 z "},"û":{"ha":722,"x_min":0,"x_max":0,"o":"m 103 450 b 104 -14 49 289 -51 -14 b 428 264 206 -14 326 107 b 524 -14 382 76 415 -19 b 675 139 603 -10 694 104 b 610 188 653 176 592 132 b 665 374 624 232 640 282 b 664 708 721 569 743 704 b 431 529 558 714 413 574 b 474 506 439 506 460 507 b 288 274 397 367 349 274 b 325 478 244 274 300 414 b 281 708 383 628 368 701 b 44 515 175 715 26 560 b 103 450 64 465 126 522 z m 558 740 b 613 729 572 729 596 724 b 668 769 633 736 656 751 b 674 814 679 786 681 800 l 556 993 b 507 1011 549 1004 529 1011 b 450 993 486 1011 463 1006 l 257 814 b 243 769 242 800 238 786 b 282 729 247 751 264 736 b 339 740 296 724 322 729 l 467 821 z "},"ü":{"ha":722,"x_min":0,"x_max":0,"o":"m 103 450 b 104 -14 49 289 -51 -14 b 428 264 206 -14 326 107 b 524 -14 382 76 415 -19 b 675 139 603 -10 694 104 b 610 188 653 176 592 132 b 665 374 624 232 640 282 b 664 708 721 569 743 704 b 431 529 558 714 413 574 b 474 506 439 506 460 507 b 288 274 397 367 349 274 b 325 478 244 274 300 414 b 281 708 383 628 368 701 b 44 515 175 715 26 560 b 103 450 64 465 126 522 z m 346 769 b 463 883 389 778 450 826 b 393 965 474 933 436 975 b 278 849 346 956 288 907 b 346 769 271 801 308 761 z m 556 769 b 674 883 600 779 661 826 b 604 965 685 933 647 975 b 489 849 556 956 499 907 b 556 769 482 801 518 763 z "},"ý":{"ha":693,"x_min":0,"x_max":0,"o":"m 467 450 b 338 226 433 296 388 226 b 328 478 276 226 268 290 b 271 708 375 628 360 701 b 46 515 165 715 25 560 b 111 450 67 465 125 522 b 207 15 50 142 94 15 b 311 35 242 15 276 22 b 257 -47 290 -10 271 -42 b 79 -17 201 -71 125 -32 b -18 -14 46 -6 3 6 b -29 -85 -33 -28 -39 -57 b 168 -237 -1 -168 104 -237 b 675 458 329 -237 588 111 b 624 708 699 547 740 703 b 399 515 518 714 378 560 b 467 450 419 465 482 522 z m 375 732 l 615 889 b 636 976 643 907 650 950 b 507 1028 613 1024 540 1060 l 286 817 b 272 772 272 804 268 789 b 317 721 276 754 299 728 b 375 732 331 715 357 721 z "},"ÿ":{"ha":693,"x_min":0,"x_max":0,"o":"m 467 450 b 338 226 433 296 388 226 b 328 478 276 226 268 290 b 271 708 375 628 360 701 b 46 515 165 715 25 560 b 111 450 67 465 125 522 b 207 15 50 142 94 15 b 311 35 242 15 276 22 b 257 -47 290 -10 271 -42 b 79 -17 201 -71 125 -32 b -18 -14 46 -6 3 6 b -29 -85 -33 -28 -39 -57 b 168 -237 -1 -168 104 -237 b 675 458 329 -237 588 111 b 624 708 699 547 740 703 b 399 515 518 714 378 560 b 467 450 419 465 482 522 z m 332 769 b 449 883 375 778 436 826 b 379 965 460 933 422 975 b 264 849 332 956 274 907 b 332 769 257 801 294 761 z m 542 769 b 660 883 586 779 647 826 b 590 965 671 933 633 975 b 475 849 542 956 485 907 b 542 769 468 801 504 763 z "},"ž":{"ha":583,"x_min":0,"x_max":0,"o":"m 310 560 b 388 574 333 568 361 572 b 0 136 279 431 76 301 b 54 -10 -37 56 -21 -4 b 106 -6 69 -11 88 -10 b 360 0 169 -14 282 -22 b 536 175 447 25 508 86 b 475 300 564 271 532 315 b 292 156 411 283 369 203 b 207 128 265 140 240 132 b 219 154 206 133 211 142 b 536 496 315 293 432 371 b 549 708 618 593 625 700 b 471 700 524 711 496 708 b 110 638 306 714 174 724 b 90 382 47 553 11 371 b 310 560 174 393 242 538 z m 546 1008 l 419 928 l 326 1008 b 274 1019 314 1019 290 1025 b 218 979 253 1013 231 997 b 213 935 206 963 204 949 l 331 756 b 379 738 338 743 358 738 b 436 756 401 738 424 744 l 629 935 b 643 979 643 949 647 963 b 604 1019 639 997 622 1013 b 546 1008 590 1025 564 1019 z "},"ﬁ":{"ha":844,"x_min":0,"x_max":0,"o":"m 506 567 b 576 642 529 572 557 608 b 551 692 594 671 581 686 b 382 696 532 696 461 696 b 463 865 408 792 435 860 b 607 776 515 875 586 800 b 719 731 636 742 668 722 b 839 851 778 740 836 788 b 500 999 842 943 657 1024 b 185 690 346 974 247 844 b 100 682 143 688 113 686 b 44 592 67 671 42 608 b 78 560 46 576 54 563 b 138 558 83 558 106 558 b 136 546 138 554 136 550 l 129 522 b 126 510 128 518 128 514 b 89 218 110 401 99 296 b 3 168 82 160 43 218 b 83 -14 -33 124 7 -8 b 290 179 174 -21 256 53 b 339 510 310 246 325 401 b 350 560 340 526 346 543 b 506 567 425 561 490 564 z m 613 450 b 560 292 596 397 579 357 b 644 -17 511 122 504 -24 b 794 125 724 -12 814 90 b 729 174 772 163 713 118 b 785 358 743 218 760 268 b 786 708 840 556 865 704 b 550 515 681 714 532 560 b 613 450 569 465 635 522 z "},"ﬃ":{"ha":1350,"x_min":0,"x_max":0,"o":"m 1118 450 b 1065 292 1101 397 1085 357 b 1150 -17 1017 122 1010 -24 b 1300 125 1229 -12 1319 90 b 1235 174 1278 163 1218 118 b 1290 358 1249 218 1265 268 b 1292 708 1346 556 1371 704 b 1056 515 1186 714 1038 560 b 1118 450 1075 465 1140 522 z m 350 560 b 643 558 449 557 544 556 b 642 546 643 554 642 550 l 635 522 b 632 510 633 518 633 514 b 594 218 615 401 604 296 b 508 168 588 160 549 218 b 589 -14 472 124 513 -8 b 796 179 679 -21 761 53 b 844 510 815 246 831 401 b 856 560 846 526 851 543 b 1011 567 931 561 996 564 b 1082 642 1035 572 1063 608 b 1057 692 1100 671 1086 686 b 888 696 1038 696 967 696 b 968 865 914 792 940 860 b 1113 776 1021 875 1092 800 b 1225 731 1142 742 1174 722 b 1344 851 1283 740 1342 788 b 1006 999 1347 943 1163 1024 b 690 690 851 974 753 844 b 382 696 590 694 482 696 b 463 865 408 792 435 863 b 535 776 492 868 514 800 b 647 731 564 742 596 722 b 742 851 706 740 739 788 b 500 999 744 940 621 1017 b 185 690 346 975 247 844 b 100 682 143 688 113 686 b 44 592 67 671 42 608 b 78 560 46 576 54 563 b 138 558 83 558 106 558 b 136 546 138 554 136 550 l 129 522 b 126 510 128 518 128 514 b 89 218 110 401 99 296 b 3 168 82 160 43 218 b 83 -14 -33 124 7 -8 b 290 179 174 -21 256 53 b 339 510 310 246 325 401 b 350 560 340 526 346 543 z "}}}
